<?xml version="1.0" encoding="utf-8"?>
<!-- Generator: Adobe Illustrator 21.0.0, SVG Export Plug-In . SVG Version: 6.00 Build 0)  -->
<svg version="1.1" id="Layer_1" xmlns="http://www.w3.org/2000/svg" xmlns:xlink="http://www.w3.org/1999/xlink" x="0px" y="0px"
	 viewBox="0 0 77.8 71.4" style="enable-background:new 0 0 77.8 71.4;" xml:space="preserve">
<style type="text/css">
	.st0{fill:#FFFFFF;}
</style>
<title>BRAC-University</title>
<g>
	<path class="st0" d="M41.2,0c0.1,0.2,0.3,0.1,0.5,0.1c3.2,0.3,6.3,1.1,9.2,2.4c8.8,4.1,14.6,10.8,16.9,20.3
		c2.3,9.9-0.1,18.8-6.7,26.5c-0.2,0.2-0.3,0.3-0.5,0c-0.3-0.4-0.6-0.7-1-1c-0.2-0.2-0.2-0.3,0-0.5c5.1-5.7,7.5-13.2,6.8-20.7
		c-0.5-6.2-3.2-12-7.5-16.4c-4.2-4.6-9.9-7.5-16-8.3C34.5,1.1,26,3.8,20,9.7c-4.5,4.2-7.4,9.8-8.2,15.8c-1.2,7.8,1,15.8,6.2,21.8
		c0.2,0.2,0.3,0.4,0.5,0.6c0.1,0.1,0.1,0.2,0,0.3c-0.4,0.4-0.8,0.8-1.2,1.2c-0.2,0.2-0.3,0-0.3-0.1c-4.7-5.2-7.3-11.9-7.5-18.9
		c-0.3-7.9,2.7-15.5,8.2-21.1c5.1-5.4,12-8.6,19.3-9.2c0.1,0,0.2,0,0.3-0.1H41.2z"/>
	<path class="st0" d="M39,57.1h-1c-0.5,0-0.6-0.2-0.6-0.6s0-0.7,0-1c0-0.2-0.1-0.4-0.2-0.5c-4-3.7-8.9-6.4-14.2-7.9
		c-0.7-0.2-1.5-0.4-2.2-0.6c-0.2,0-0.2-0.1-0.2-0.3c0-0.6,0-1.2,0-1.8c0-0.3,0-0.4,0.4-0.3c2.2,0.5,4.3,1.1,6.3,1.9
		c4.2,1.7,8.1,4.1,11.5,7.1c0.2,0.2,0.3,0.1,0.4,0c1.7-1.4,3.5-2.8,5.3-4c3.5-2.2,7.3-3.8,11.3-4.7l1.2-0.3c0.2,0,0.2,0,0.2,0.2
		c0,0.7,0,1.3,0,2c0,0.1,0,0.2-0.2,0.2c-4.2,0.8-8.1,2.5-11.7,4.8c-1.6,1-3.1,2.2-4.5,3.5c-0.2,0.1-0.3,0.4-0.3,0.6
		c0,0.4,0,0.7,0,1.1s-0.2,0.6-0.6,0.6L39,57.1"/>
	<path class="st0" d="M39,50.5h-1c-0.3,0-0.5-0.1-0.6-0.4c0-0.1,0-0.1,0-0.2c0-0.1,0-0.2,0-0.3c0.1-0.7-0.2-1.4-0.8-1.8
		c-2.3-2-4.9-3.7-7.6-5.1c-2.6-1.2-5.3-2.1-8.1-2.8c-0.2-0.1-0.3-0.2-0.3-0.4c0-0.6,0-1.2,0-1.8c0-0.3,0.1-0.3,0.3-0.2
		c4.7,1,9.1,2.8,13.1,5.4c1.7,1.1,3.3,2.3,4.8,3.6c0.2,0.2,0.3,0.1,0.4,0c1.3-1.1,2.6-2.1,4-3.1c4.1-2.9,8.8-4.8,13.7-5.8
		c0.2,0,0.3,0,0.3,0.2c0,0.6,0,1.2,0,1.8c0,0.2,0,0.3-0.2,0.3c-6,1.3-11.6,4.2-16.2,8.4c-0.2,0.1-0.2,0.3-0.2,0.5c0,0.4,0,0.7,0,1.1
		s-0.2,0.6-0.6,0.6L39,50.5"/>
	<path class="st0" d="M39,63.6h-1c-0.4,0-0.6-0.2-0.6-0.6c0-0.2,0-0.5,0-0.7c0.1-0.4-0.1-0.8-0.4-1c-2.3-2.1-4.9-3.9-7.7-5.3
		c-2.2-1.1-4.6-1.9-7-2.6c-0.5-0.2-1-0.3-1.5-0.4c-0.2,0-0.2-0.2-0.2-0.3c0-0.6,0-1.2,0-1.7c0-0.3,0.1-0.4,0.4-0.3
		c1.4,0.3,2.7,0.7,4,1.1c2,0.6,3.8,1.4,5.7,2.3c2.9,1.5,5.6,3.4,8.1,5.5c0.2,0.2,0.3,0.1,0.4,0c1.5-1.3,3.1-2.5,4.8-3.6
		c3.6-2.4,7.6-4.1,11.9-5.1l1.1-0.3c0.2,0,0.3,0,0.3,0.2c0,0.6,0,1.2,0,1.8c0,0.2,0,0.2-0.2,0.3c-2.1,0.4-4.2,1.1-6.2,2
		c-3,1.3-5.9,3.1-8.5,5.1c-0.5,0.4-1,0.9-1.5,1.3c-0.2,0.1-0.2,0.3-0.2,0.5c0,0.4,0,0.8,0,1.2s-0.2,0.6-0.6,0.6L39,63.6L39,63.6z"/>
	<path class="st0" d="M39.2,25.8c-0.8,0-1.6,0-2.3,0c-0.2,0-0.4-0.1-0.5-0.2c-0.9-1.3-1.8-2.5-2.7-3.8c-0.3-0.2-0.6-0.3-1-0.2
		c-0.1,0-0.1,0.1-0.1,0.2c0,1,0,1.9,0,2.9c0,0.6,0.3,0.9,1,0.9h0.2c0.1,0,0.1,0,0.1,0.1s0,0.1-0.1,0.1H30c-0.1,0-0.1-0.1-0.1-0.1
		s0-0.1,0.1-0.1h0.4c0.4,0,0.8-0.3,0.8-0.8c0,0,0,0,0,0c0-0.1,0-0.3,0-0.5c0-2,0-4,0-6.1c0-0.1,0-0.1,0-0.2c0-0.8-0.3-1-1-1h-0.1
		c-0.1,0-0.1,0-0.2-0.1s0.1-0.1,0.2-0.1c1.6,0,3.2-0.1,4.8,0.1c0.6,0.1,1.1,0.3,1.5,0.8c0.8,0.9,0.8,2.2-0.1,3.1
		c0,0-0.1,0.1-0.1,0.1c-0.3,0.2-0.5,0.4-0.8,0.5c-0.2,0.1-0.5,0-0.5,0.2s0.2,0.4,0.3,0.5l1.7,2.4c0.4,0.6,1.1,1.1,1.8,1.2
		c0.4,0.1,0.9-0.1,1.1-0.5c0.2-0.4,0.4-0.7,0.6-1.1l3.1-7.1c0-0.1,0-0.3,0.2-0.3s0.2,0.2,0.2,0.3l3,7.2c0.1,0.3,0.2,0.5,0.3,0.7
		c0.2,0.4,0.6,0.7,1,0.8c0.1,0,0.2,0,0.2,0.2s-0.1,0.1-0.2,0.1h-3.1c-0.1,0-0.2,0-0.2-0.1s0.1-0.1,0.2-0.2c0.1,0,0.3,0,0.4-0.1
		c0.3-0.1,0.4-0.3,0.4-0.6c0,0,0,0,0,0c-0.2-0.7-0.4-1.4-0.8-2c0-0.1-0.2-0.1-0.3-0.1h-3.1c-0.1,0-0.3,0.1-0.3,0.2
		c-0.2,0.5-0.5,1.1-0.7,1.6s0,0.8,0.5,0.9c0.1,0,0.5-0.1,0.4,0.2s-0.3,0.1-0.4,0.1C40.6,25.8,39.9,25.8,39.2,25.8 M32.5,19.2
		c0,0.6,0,1.1,0,1.7c0,0.1,0,0.2,0.2,0.2c0.6,0,1.2-0.1,1.8-0.3c0.7-0.4,1.1-1.2,1-2c-0.1-0.8-0.7-1.4-1.5-1.5
		c-0.4-0.1-0.8-0.1-1.3,0c-0.2,0-0.3,0.1-0.2,0.3C32.5,18.1,32.5,18.7,32.5,19.2 M44.9,22.2l-1.5-3.6l-1.5,3.4
		c-0.1,0.1,0,0.2,0.1,0.2H44.9"/>
	<path class="st0" d="M27.1,21.2l0.3,0.1c0.8,0.2,1.4,0.9,1.5,1.7c0.1,0.9-0.3,1.7-1,2.2c-0.7,0.4-1.4,0.6-2.2,0.6
		c-1.6,0-3.2,0-4.7,0c-0.1,0-0.2,0-0.2-0.1s0.1-0.1,0.2-0.1c0.8,0,1-0.3,1-1c0-2.2,0-4.3,0-6.5c0-0.8-0.2-1-1-1
		c-0.1,0-0.2,0-0.2-0.1s0.1-0.1,0.2-0.1c1.4,0,2.9,0,4.3,0c0.7,0,1.4,0.1,2,0.4c0.8,0.4,1.3,1.1,1.3,2c0,0.8-0.5,1.5-1.3,1.8
		l-0.2,0.1C27.1,21.1,27.1,21.1,27.1,21.2 M24.4,21.4h-0.8c-0.2,0-0.3,0-0.3,0.2c0,1.1,0,2.2,0,3.3c0,0.1,0,0.2,0.2,0.2
		c0.8,0.2,1.5,0.2,2.3,0c0.8-0.1,1.4-0.8,1.5-1.6c0.1-0.9-0.4-1.7-1.3-2C25.6,21.4,25,21.3,24.4,21.4 M24.6,20.8
		c0.4,0,0.9,0,1.3-0.1c0.6-0.1,1.1-0.6,1.2-1.3c0.2-1-0.4-1.9-1.4-2.2c-0.7-0.2-1.4-0.2-2.1-0.1c-0.1,0-0.2,0.1-0.2,0.2c0,0,0,0,0,0
		c0,1,0,2,0,3c0,0.2,0.1,0.3,0.3,0.3C23.9,20.8,24.2,20.8,24.6,20.8"/>
	<path class="st0" d="M57.1,18.1c0,0.4,0.1,0.9,0.1,1.3c0,0.1,0.1,0.2-0.1,0.2s-0.2,0-0.2-0.1c-0.1-0.3-0.3-0.7-0.4-1
		c-0.5-1-1.5-1.5-2.6-1.5c-1.1,0-2.1,0.6-2.5,1.5c-0.8,1.5-0.9,3.3-0.2,4.9c0.7,1.6,2.5,2.4,4.2,1.8c0.4-0.2,0.8-0.4,1.1-0.8
		c0.2-0.2,0.4-0.5,0.6-0.7c0.1-0.1,0.1-0.2,0.3-0.1s0,0.2,0,0.3c-0.9,1.7-2.7,2.5-4.6,2.1c-1.7-0.3-3.1-1.7-3.4-3.4
		c-0.4-1.7,0-3.4,1.2-4.6c1.3-1.4,3.4-1.9,5.2-1c0.6,0.3,0.7,0.3,1-0.3c0-0.1,0.1-0.1,0.2-0.1s0.1,0.1,0.1,0.2
		C57.1,17.2,57.1,17.6,57.1,18.1L57.1,18.1z"/>
	<path class="st0" d="M25.5,33.7c0-1.2,0-2.3,0-3.3c0-0.4-0.1-0.5-0.5-0.5c-0.1,0-0.2,0-0.2-0.1s0.1-0.1,0.2-0.1h1.5
		c0.1,0,0.2,0,0.2,0.1s-0.1,0.1-0.2,0.1c-0.5,0.1-0.6,0.1-0.6,0.7c0,1.5,0,2.9,0,4.4c0,0.1,0.1,0.2-0.1,0.3s-0.2-0.1-0.3-0.2
		l-3.1-3.8c-0.1-0.1-0.1-0.2-0.3-0.3c0,0.2,0,0.4,0,0.6c0,0.9,0,1.9,0,2.8c0,0.5,0.1,0.5,0.6,0.6c0.1,0,0.2,0,0.2,0.1
		s-0.1,0.1-0.2,0.1h-1.6c-0.1,0-0.1,0-0.1-0.1s0.1-0.1,0.1-0.1c0.5-0.1,0.6-0.2,0.6-0.7c0-1.2,0-2.5,0-3.7c0-0.3-0.4-0.7-0.8-0.7
		h-0.3c-0.5,0-0.7,0.2-0.7,0.7c0,0.8,0,1.5,0,2.3c0,0.3,0,0.6-0.1,0.9c-0.1,0.7-0.6,1.3-1.4,1.5c-0.5,0.1-1,0.1-1.5,0
		c-0.7-0.2-1.3-0.8-1.3-1.6c-0.1-0.9,0-1.8,0-2.7c0-0.2,0-0.3,0-0.5c0-0.4-0.2-0.5-0.6-0.5c-0.1,0-0.2,0-0.2-0.1s0.1-0.1,0.2-0.1
		h1.9c0.1,0,0.2,0,0.2,0.1s-0.1,0.1-0.2,0.1c-0.4,0-0.5,0.1-0.6,0.5c-0.1,1.1-0.1,2.3,0,3.4c0,0.6,0.6,1.1,1.2,1.1c0,0,0.1,0,0.1,0
		c0.8,0.1,1.6-0.4,1.7-1.2c0-0.1,0-0.3,0-0.4c0-1,0-1.9,0-2.9c0-0.4-0.1-0.5-0.6-0.6c-0.1,0-0.2,0-0.2-0.1s0.1-0.1,0.2-0.1h3
		c0.2,0,0.3,0.1,0.4,0.2l2.9,3.5L25.5,33.7"/>
	<path class="st0" d="M41.9,29.6c0.5,0,1.1,0,1.6,0.1c0.8,0,1.3,0.7,1.3,1.4c0,0,0,0,0,0.1c-0.1,0.6-0.5,1-1,1.1
		c-0.2,0.1-0.3,0.1-0.1,0.3c0.4,0.5,0.7,1,1.1,1.5c0.2,0.4,0.6,0.6,1.1,0.7c0.1,0,0.2,0,0.2,0.1s-0.1,0.1-0.2,0.1
		c-0.4,0-0.8,0-1.1,0c-0.2,0-0.2-0.1-0.3-0.2c-0.5-0.7-1-1.4-1.5-2.1c-0.2-0.2-0.4-0.2-0.6-0.2s-0.1,0.1-0.1,0.2c0,0.5,0,1.1,0,1.6
		s0.1,0.5,0.5,0.6c0.1,0,0.2,0,0.2,0.1s-0.1,0.1-0.2,0.1h-2c-0.1,0-0.2,0-0.2-0.1s0.1-0.1,0.2-0.1c0.5,0,0.6-0.2,0.6-0.6
		c0-1.3,0-2.6,0-3.9c0-0.5-0.1-0.6-0.6-0.6c-0.1,0-0.2,0-0.2-0.1s0.1-0.1,0.2-0.1L41.9,29.6 M42.1,31.1c0,0.3,0,0.6,0,0.9
		c0,0.1,0,0.2,0.1,0.2c0.7,0.1,1.3-0.2,1.6-0.9c0.3-0.9-0.4-1.6-1.5-1.4c-0.2,0-0.3,0.1-0.3,0.3S42.1,30.8,42.1,31.1"/>
	<path class="st0" d="M49.6,30.5c0,0.3,0,0.5,0,0.8c0,0.1,0,0.2-0.1,0.2s-0.1-0.1-0.1-0.2c0-0.2-0.1-0.4-0.2-0.5
		c-0.3-0.6-0.9-0.9-1.5-0.8c-0.3,0-0.6,0.3-0.7,0.6c-0.1,0.3,0,0.7,0.3,0.8c0.3,0.2,0.6,0.4,0.9,0.6c0.3,0.2,0.7,0.4,1,0.6
		c0.5,0.3,0.8,0.9,0.6,1.5c-0.1,0.6-0.5,1-1.1,1.2c-0.4,0.1-0.8,0.1-1.3,0L47,35c-0.2-0.1-0.4-0.1-0.4,0.2c0,0.1-0.1,0.1-0.1,0.1
		s-0.1-0.1-0.1-0.1c0-0.5,0-1.1,0-1.6c0-0.1,0-0.1,0.1-0.1s0.1,0,0.1,0.1s0.1,0.3,0.1,0.4c0.3,0.8,1.1,1.2,1.9,1
		c0.5-0.1,0.8-0.6,0.7-1c0-0.2-0.1-0.3-0.3-0.5c-0.2-0.2-0.4-0.3-0.7-0.5c-0.4-0.3-0.8-0.5-1.2-0.8c-0.5-0.3-0.8-1-0.6-1.5
		c0.2-0.6,0.7-1,1.4-1c0.4,0,0.8,0.1,1.1,0.2c0.2,0.1,0.4,0.2,0.5-0.1c0-0.1,0.1-0.1,0.1-0.1c0,0,0,0,0,0c0.1,0,0.1,0.1,0.1,0.1
		L49.6,30.5"/>
	<path class="st0" d="M37.6,35.1h-1.9c-0.1,0-0.2,0.1-0.2-0.1s0.1-0.1,0.2-0.1c0.5-0.1,0.6-0.2,0.6-0.6c0-1.3,0-2.6,0-3.8
		c0-0.5-0.1-0.6-0.6-0.6c-0.1,0-0.2,0-0.2-0.1s0.1-0.1,0.2-0.1h3.8c0.1,0,0.2,0,0.2,0.2c0,0.3,0,0.6,0,0.9c0,0.1,0,0.1-0.1,0.1
		s-0.1,0-0.1-0.1l-0.1-0.3c-0.1-0.3-0.3-0.5-0.6-0.5h-1.6c-0.2,0-0.2,0-0.2,0.2c0,0.6,0,1.1,0,1.7c0,0.2,0.1,0.2,0.2,0.2h1.1
		c0.5,0,0.6-0.1,0.7-0.6c0-0.1,0-0.2,0.1-0.2s0.1,0.1,0.1,0.2c0,0.5,0,1,0,1.5c0,0.1,0,0.2-0.1,0.2s-0.1-0.1-0.1-0.2
		c-0.2-0.5-0.3-0.6-0.8-0.7h-1c-0.2,0-0.2,0-0.2,0.2c0,0.6,0,1.2,0,1.8c0,0.3,0.1,0.4,0.4,0.4s0.7,0,1.1,0c0.5,0,1-0.2,1.2-0.7
		l0.1-0.2c0-0.1,0.1-0.2,0.2-0.2s0,0.2,0,0.3c-0.1,0.4-0.2,0.8-0.4,1s-0.7,0-1.1,0.1L37.6,35.1"/>
	<path class="st0" d="M61.3,32.4c0.4-0.7,0.8-1.3,1.2-1.9c0.2-0.4,0.1-0.6-0.3-0.7c-0.1,0-0.1,0-0.1-0.1s0.1-0.1,0.1-0.1h1.6
		c0.1,0,0.1,0,0.2,0.1s0,0.1-0.1,0.1c-0.4,0.1-0.7,0.3-0.8,0.6c-0.5,0.7-1,1.5-1.4,2.2c0,0-0.1,0.1-0.1,0.1c-0.1,0.6-0.1,1.3,0,1.9
		c0,0.3,0.3,0.3,0.5,0.3c0.1,0,0.2,0,0.2,0.1s-0.1,0.1-0.2,0.1h-1.9c-0.1,0-0.2,0-0.2-0.1S60,35,60.1,35c0.5-0.1,0.6-0.2,0.6-0.6
		s0-0.8,0-1.3c0-0.1,0-0.2-0.1-0.3l-1.5-2.2c-0.2-0.3-0.5-0.6-0.8-0.6c-0.1,0-0.1,0-0.1-0.1s0.1-0.1,0.1-0.1h2c0.1,0,0.1,0,0.1,0.1
		s-0.1,0.1-0.1,0.1c-0.5,0.1-0.6,0.3-0.3,0.7C60.4,31.2,60.8,31.8,61.3,32.4"/>
	<path class="st0" d="M32.7,34l1-2.5c0.1-0.3,0.3-0.7,0.4-1s0-0.5-0.3-0.6c-0.1,0-0.2,0-0.2-0.1s0.2-0.1,0.2-0.1h1.2
		c0.1,0,0.2,0,0.2,0.1s0,0.1-0.1,0.1c-0.3,0.1-0.6,0.4-0.7,0.7L32.7,35c0,0.1,0,0.3-0.2,0.3s-0.2-0.2-0.2-0.3c-0.7-1.5-1.3-3-2-4.5
		c-0.1-0.3-0.3-0.6-0.7-0.6c-0.1,0-0.1,0-0.1-0.1s0.1-0.1,0.1-0.1h2c0,0,0.1,0,0.1,0.1s-0.1,0.1-0.1,0.1c-0.5,0.2-0.6,0.3-0.4,0.8
		C31.7,31.8,32.2,32.9,32.7,34"/>
	<path class="st0" d="M56,32.3c0,0.7,0,1.4,0,2c0,0.4,0.1,0.5,0.6,0.6c0.1,0,0.2,0,0.2,0.1s-0.1,0.1-0.2,0.1h-1.9
		c-0.1,0-0.2,0-0.2-0.1s0.1-0.1,0.2-0.1c0.5,0,0.6-0.1,0.6-0.6c0-1.4,0-2.8,0-4.1c0-0.2-0.1-0.2-0.2-0.2h-0.4
		c-0.7,0-0.8,0.1-1.1,0.8c0,0.1,0,0.1-0.1,0.1s-0.1-0.1-0.1-0.1s0,0,0,0c0-0.4-0.1-0.8,0.1-1s0.6-0.1,1-0.1h3.2
		c0.2,0,0.3,0.1,0.3,0.3s0,0.6,0,0.9c0,0.1,0,0.1-0.1,0.1s-0.1-0.1-0.1-0.1c-0.2-0.7-0.4-0.8-1.1-0.8c-0.6,0-0.6,0-0.6,0.6L56,32.3
		L56,32.3z"/>
	<path class="st0" d="M28.1,35.1h-1c-0.1,0-0.1,0-0.1-0.1s0.1-0.1,0.1-0.1c0.5-0.1,0.6-0.2,0.6-0.7c0-1.2,0-2.5,0-3.7
		c0-0.5-0.1-0.6-0.6-0.7c-0.1,0-0.2,0-0.2-0.1s0.1-0.1,0.2-0.1h2c0.1,0,0.2,0,0.2,0.1s-0.1,0.1-0.2,0.1c-0.5,0-0.6,0.1-0.6,0.6
		c0,1.3,0,2.6,0,3.9c0,0.4,0.1,0.5,0.6,0.6c0.1,0,0.2,0,0.2,0.1s-0.1,0.1-0.2,0.1L28.1,35.1"/>
	<path class="st0" d="M51.4,32.4c0-0.6,0-1.3,0-1.9c0-0.4-0.1-0.5-0.6-0.6c-0.1,0-0.2,0-0.2-0.1s0.1-0.1,0.2-0.1h1.9
		c0.1,0,0.2,0,0.2,0.1s-0.1,0.1-0.2,0.1c-0.4,0-0.5,0.1-0.6,0.6c0,1.3,0,2.7,0,4c0,0.4,0.2,0.5,0.6,0.5c0.1,0,0.2,0,0.2,0.1
		s-0.1,0.1-0.2,0.1h-2c-0.1,0-0.2,0-0.2-0.1s0.1-0.1,0.2-0.1c0.5-0.1,0.6-0.2,0.6-0.6C51.4,33.6,51.4,33,51.4,32.4"/>
	<path class="st0" d="M41.2,67.4c0.1,0.5,0.1,1,0,1.5c0-0.8-0.6-0.7-1-0.7s-0.5-0.1-0.5,0.4c0,0.3,0,0.6,0,0.9S39.8,70,40,70
		c0.1,0,0.2,0,0.4,0c0.6,0.1,1.1-0.2,1.3-0.7c0,0,0,0,0.1,0c0,0.3-0.1,0.6-0.3,0.9c0,0.1-0.1,0-0.2,0h-2.8c0,0-0.1,0-0.1-0.1
		c0.7,0,0.6-0.5,0.6-0.9c0-0.7,0-1.3,0-1.9c0-0.4,0.1-0.9-0.6-0.9c0.1-0.1,0.2-0.1,0.3-0.1c0.8,0,1.7,0,2.5,0c0.2,0,0.3,0.1,0.3,0.3
		c0,0.2,0,0.4,0,0.6c-0.2-0.7-0.7-0.7-1.3-0.7s-0.6,0-0.6,0.7c0,0,0,0.1,0,0.1c0,0.3-0.1,0.7,0.1,0.8c0.4,0.1,0.8,0.1,1.1,0
		C41.1,67.9,41.1,67.7,41.2,67.4"/>
	<path class="st0" d="M32.9,67.9c0.3,1-0.2,1.5-1.2,1.4c-0.2,0-0.3,0.1-0.4,0.2s0.2,0.2,0.3,0.2h0.9c0.3,0,0.6,0.1,0.7,0.4
		c0.1,0.3,0,0.6-0.2,0.8c-0.6,0.5-1.5,0.6-2.1,0.2c-0.2-0.1-0.3-0.3-0.2-0.5c0,0,0-0.1,0.1-0.1c0.1-0.1,0.2-0.2,0.3-0.3
		c0.1-0.1,0.2-0.2,0-0.3s-0.1-0.4,0.1-0.6s0.2-0.2,0-0.4c-0.4-0.4-0.3-0.9,0-1.3c0.1-0.1,0.2-0.1,0.3-0.2c0.3-0.1,0.6-0.1,0.9,0
		c0.3,0.1,0.5,0.1,0.8,0.1c0.1,0,0.2,0,0.2,0.1s-0.1,0.1-0.2,0.1L32.9,67.9 M32.2,71.1c0.3,0,0.5-0.1,0.8-0.2
		c0.1-0.1,0.2-0.2,0.2-0.4c0-0.2-0.2-0.2-0.3-0.2l-1.3-0.1c-0.2,0-0.3,0.2-0.4,0.4s0,0.3,0.2,0.4C31.6,71,31.9,71.1,32.2,71.1
		 M31.4,68.2c0,0.3,0.1,0.5,0.2,0.7c0.1,0.2,0.4,0.2,0.6,0.1c0.1-0.1,0.1-0.1,0.2-0.2c0.1-0.3,0.1-0.7-0.1-1
		c-0.1-0.2-0.3-0.2-0.4-0.2c-0.2,0-0.3,0.1-0.4,0.3C31.4,68,31.4,68.2,31.4,68.2"/>
	<path class="st0" d="M12.6,70.1c0,0.2,0,0.4,0,0.6s0,0.7,0.4,0.7h-1.4c0.5,0,0.4-0.4,0.4-0.8c0-0.8,0-1.6,0-2.3
		c0-0.3,0-0.5-0.4-0.4v-0.1l0.8-0.3c0.1,0,0.1,0,0.1,0.1v0.3h0.1c0.2-0.3,0.6-0.5,0.9-0.4c0.4,0.1,0.7,0.4,0.7,0.8
		c0.1,0.3,0.1,0.7,0,1c-0.1,0.6-0.8,1-1.4,0.9C12.9,70.2,12.8,70.2,12.6,70.1 M13.9,69c0-0.3-0.1-0.6-0.2-0.8
		c-0.1-0.2-0.4-0.4-0.6-0.3c-0.3,0.1-0.5,0.3-0.4,0.6c0,0.3,0,0.6,0,0.9c0,0.3,0.2,0.5,0.4,0.6c0.3,0.1,0.6-0.1,0.7-0.3
		C13.9,69.5,13.9,69.2,13.9,69"/>
	<path class="st0" d="M28.9,70.2h-1.3c0.5-0.2,0.5-0.2,0.5-0.8c0-0.4,0-0.7,0-1.1s-0.2-0.5-0.4-0.5c-0.3,0-0.6,0.2-0.6,0.6
		c0,0.3,0,0.7,0,1c0,0.3-0.1,0.7,0.5,0.7c-0.5,0.1-1,0.1-1.5,0c0.5,0,0.4-0.4,0.4-0.7s0-0.7,0-1.1s0-0.6-0.5-0.4v-0.1l0.8-0.3
		c0.1,0,0.1,0,0.1,0.1s0,0.2,0,0.3c0.1-0.1,0.2-0.2,0.4-0.3c0.3-0.3,0.7-0.2,1,0c0.1,0.1,0.2,0.3,0.2,0.5c0,0.4,0,0.8,0,1.3
		S28.5,70,28.9,70.2"/>
	<path class="st0" d="M3.4,67.9c0.2-0.2,0.5-0.3,0.8-0.4c0.1,0,0.2,0,0.2,0.1s0,0.2,0,0.3c0.2-0.1,0.3-0.2,0.4-0.3
		c0.3-0.2,0.7-0.2,0.9,0.1c0.1,0.1,0.2,0.3,0.2,0.4c0,0.4,0,0.8,0,1.3S5.8,70,6.3,70.1c-0.4,0.1-0.9,0.1-1.3,0
		c0.4-0.2,0.4-0.2,0.4-0.7c0-0.3,0-0.7,0-1S5.2,67.8,5,67.9c-0.3,0-0.6,0.3-0.6,0.6c0,0.3,0,0.7,0,1s-0.1,0.7,0.4,0.8H3.5
		c0.5-0.1,0.4-0.5,0.4-0.8s0-0.6,0-0.9S4,67.8,3.4,67.9"/>
	<path class="st0" d="M66.9,67.8l0.7-0.3c0.1,0,0.2,0,0.2,0.1s0,0.2,0,0.3c0.2-0.1,0.3-0.2,0.4-0.3c0.3-0.3,0.7-0.3,0.9,0
		c0.1,0.1,0.2,0.3,0.2,0.5c0,0.5,0,0.9,0,1.4c0,0.3,0,0.6,0.4,0.7h-1.2c0.5-0.1,0.4-0.5,0.4-0.9s0-0.7,0-1s-0.1-0.4-0.4-0.4
		s-0.7,0.3-0.7,0.5c0,0.5,0,0.9,0,1.4c0,0.3,0.2,0.3,0.4,0.4c-0.5,0.1-0.9,0.1-1.4,0c0.6-0.1,0.5-0.5,0.5-0.8s0-0.7,0-1
		S67.3,68,66.9,67.8"/>
	<path class="st0" d="M1.7,70.2H0.1v-0.1C0.6,70,0.6,70,0.6,69.4c0-0.7,0-1.5,0-2.2s0.1-0.6-0.6-0.9h1.7v0.1
		c-0.5,0.1-0.5,0.1-0.5,0.7v2.2C1.2,69.9,1.2,69.9,1.7,70.2"/>
	<path class="st0" d="M44.5,70.2h-0.7c0,0-0.1,0-0.2-0.1c0.4-0.3,0.7-0.7,0.9-1.1c0.1-0.1,0.1-0.3,0-0.4c0,0,0,0,0,0
		c-0.1-0.2-0.3-0.4-0.4-0.6c-0.1-0.2-0.3-0.4-0.6-0.5h1.2c-0.2,0.3-0.2,0.3,0.2,0.8c0.4-0.5,0.5-0.6,0.2-0.8h0.9
		c-0.3,0.2-0.6,0.5-0.8,0.9c-0.1,0.1-0.1,0.3,0,0.4c0,0,0,0,0,0c0.2,0.2,0.3,0.5,0.5,0.7s0.3,0.5,0.6,0.6h-1.3
		c0.5-0.2,0.3-0.4,0.1-0.6L44.8,69l-0.4,0.6c-0.2,0.2-0.3,0.4,0.1,0.5L44.5,70.2"/>
	<path class="st0" d="M54.6,69.2c0,0.4-0.3,0.8-0.7,1c-0.4,0.2-0.8,0.1-1.1-0.2c-0.6-0.6-0.7-1.6,0-2.3c0,0,0,0,0,0
		c0.4-0.4,1.1-0.3,1.5,0.1c0.1,0.1,0.2,0.3,0.2,0.5c0,0.2,0,0.3-0.2,0.3c-0.5,0-0.9,0-1.4,0c-0.2,0-0.2,0-0.2,0.2
		c0,0.3,0.2,0.6,0.5,0.8c0.3,0.3,0.8,0.2,1.1-0.1c0,0,0.1-0.1,0.1-0.1L54.6,69.2L54.6,69.2 M53.4,68.3c0.1,0,0.3,0,0.4,0
		c0.3,0,0.3-0.1,0.2-0.3c-0.1-0.2-0.2-0.4-0.4-0.4c-0.2,0-0.4,0.1-0.5,0.2c-0.1,0.1-0.2,0.3-0.1,0.4s0.2,0,0.3,0.1H53.4"/>
	<path class="st0" d="M65.1,69.2c0,0.6-0.4,1-0.9,1.1c-0.1,0-0.2,0-0.3,0c-0.7-0.2-1.1-1-0.9-1.7c0.1-0.6,0.6-1.1,1.3-1.1
		c0.5,0,0.8,0.4,0.9,0.9c0,0.2,0,0.2-0.2,0.2c-0.5,0-0.9,0-1.4,0c-0.2,0-0.2,0.1-0.2,0.2c0,0.3,0.2,0.6,0.4,0.8
		c0.3,0.3,0.8,0.2,1.1-0.1c0,0,0.1-0.1,0.1-0.1C64.9,69.3,64.9,69.2,65.1,69.2 M63.9,68.4c0.1,0,0.3,0,0.4,0c0.3,0,0.3-0.1,0.2-0.3
		c-0.1-0.2-0.3-0.4-0.5-0.4c-0.2,0-0.5,0.1-0.6,0.3c-0.1,0.1-0.2,0.2-0.1,0.3s0.2,0,0.3,0L63.9,68.4"/>
	<path class="st0" d="M50.4,69.1c0,0.6-0.4,1.1-1,1.1c-0.1,0-0.3,0-0.4,0c-0.6-0.3-0.9-1.1-0.7-1.7c0.1-0.6,0.7-1.1,1.3-1
		c0.3,0,0.5,0.2,0.7,0.4c0.1,0.1,0.1,0.3,0,0.4c-0.1,0.1-0.2,0.1-0.3,0.1c-0.1,0-0.2-0.1-0.3-0.3c0-0.2-0.1-0.4-0.4-0.4
		c-0.2,0-0.5,0.1-0.6,0.3c-0.2,0.5-0.2,1.1,0.2,1.6c0.3,0.3,0.7,0.3,1,0c0,0,0,0,0.1-0.1C50.2,69.4,50.3,69.3,50.4,69.1"/>
	<path class="st0" d="M73.7,69.1c0,0.6-0.4,1.1-1,1.1c-0.1,0-0.3,0-0.4-0.1c-0.6-0.3-0.9-1.1-0.7-1.8c0.1-0.6,0.7-1.1,1.4-1
		c0.3,0,0.5,0.2,0.7,0.4c0.1,0.1,0.1,0.3,0,0.4c-0.1,0.1-0.2,0.1-0.3,0.1c-0.1,0-0.2-0.1-0.3-0.3c0-0.2-0.1-0.4-0.4-0.4
		c-0.2,0-0.5,0.1-0.6,0.3c-0.2,0.5-0.2,1.1,0.2,1.6c0.3,0.3,0.7,0.3,1,0.1c0,0,0.1-0.1,0.1-0.1C73.5,69.4,73.6,69.2,73.7,69.1"/>
	<path class="st0" d="M9.8,68.4c-0.1-0.1-0.2-0.3-0.2-0.4c-0.1-0.2-0.3-0.3-0.5-0.4c-0.2,0-0.4,0-0.5,0.2c-0.1,0.2,0,0.4,0.2,0.5
		c0.2,0.1,0.4,0.2,0.7,0.3c0.4,0.2,0.6,0.6,0.5,0.9c-0.1,0.4-0.6,0.7-1,0.6c-0.2,0-0.5-0.2-0.7-0.1c-0.1,0-0.1,0-0.1-0.1
		c0-0.3,0-0.5,0-0.8c0.2,0.1,0.2,0.2,0.2,0.3C8.5,69.8,8.7,70,9,70c0.2,0,0.4-0.1,0.5-0.3c0-0.2,0-0.3-0.2-0.4
		c-0.2-0.2-0.5-0.3-0.7-0.4c-0.3-0.1-0.4-0.4-0.5-0.7c0-0.4,0.3-0.8,0.8-0.8c0.1,0,0.2,0,0.2,0c0.2,0,0.3,0.2,0.5,0s0.1,0,0.1,0.1
		C9.8,67.8,9.8,68.1,9.8,68.4"/>
	<path class="st0" d="M57.8,70.2h-1.3c0.4-0.1,0.4-0.4,0.4-0.7c0-0.8,0-1.6,0-2.5c0-0.3,0-0.6-0.5-0.5c0.2-0.2,0.5-0.3,0.8-0.4
		c0.2-0.1,0.1,0.1,0.1,0.2c0,0.6,0,1.3,0,1.9c0,0.4,0,0.9,0,1.3S57.4,70.1,57.8,70.2L57.8,70.2"/>
	<path class="st0" d="M19.4,67.9c0.2-0.2,0.5-0.3,0.8-0.4c0.1,0,0.2,0,0.2,0.1s0,0.2,0,0.3c0.1-0.1,0.2-0.2,0.4-0.3
		c0.2-0.1,0.4-0.1,0.5,0c0.1,0.1,0.2,0.3,0.1,0.4c0,0,0,0,0,0c-0.1,0.1-0.2,0.1-0.3,0c-0.1-0.1-0.2-0.2-0.3-0.1
		c-0.2,0.1-0.3,0.3-0.3,0.4c0,0.4,0,0.9,0,1.3c0,0.3,0.3,0.3,0.4,0.5h-1.3c0.5-0.2,0.4-0.6,0.4-0.9s0-0.6,0-0.9S19.8,67.7,19.4,67.9
		"/>
	<path class="st0" d="M61,70.2h-1.3c0.4-0.1,0.4-0.4,0.4-0.7c0-0.8,0-1.7,0-2.5c0-0.3,0-0.5-0.4-0.4c0.2-0.2,0.5-0.3,0.8-0.4
		c0.2,0,0.1,0.2,0.1,0.2c0,0.9,0,1.9,0,2.8c0,0.1,0,0.2,0,0.3C60.6,69.7,60.5,70.1,61,70.2"/>
	<path class="st0" d="M23.1,67.8c0.2-0.1,0.5-0.2,0.7-0.3s0.2,0.1,0.2,0.2c0,0.6,0,1.2,0,1.8c0,0.3,0,0.6,0.4,0.7h-1.3
		c0.5-0.1,0.4-0.5,0.4-0.8s0-0.7,0-1s0-0.6-0.5-0.4L23.1,67.8"/>
	<path class="st0" d="M17.7,70.2h-1.2c0.5-0.1,0.4-0.4,0.4-0.7s0-0.8,0-1.1s0-0.5-0.5-0.4c0.2-0.2,0.5-0.3,0.8-0.4
		c0.2,0,0.1,0.1,0.1,0.2c0,0.6,0,1.2,0,1.8C17.3,70,17.3,70,17.7,70.2"/>
	<path class="st0" d="M24,66.4c0,0.2-0.1,0.3-0.3,0.3c-0.1,0-0.3-0.1-0.3-0.3c0,0,0,0,0,0c0-0.1,0.1-0.3,0.2-0.3c0,0,0,0,0.1,0
		C23.9,66.1,24,66.2,24,66.4"/>
	<path class="st0" d="M17.4,66.4c0,0.2-0.1,0.3-0.3,0.3c-0.1,0-0.3-0.1-0.3-0.2c0,0,0-0.1,0-0.1c0-0.1,0.1-0.3,0.3-0.3
		c0,0,0,0,0.1,0C17.2,66.1,17.4,66.2,17.4,66.4"/>
</g>
</svg>
