<svg id="Layer_1" data-name="Layer 1" xmlns="http://www.w3.org/2000/svg" viewBox="0 0 123.1 57.46"><defs><style>.cls-1{fill:none;stroke:#fff;stroke-miterlimit:10;}.cls-2{fill:#fff;}</style></defs><title>logo_fotter</title><rect class="cls-1" x="0.5" y="0.5" width="56.64" height="56.46"/><path class="cls-2" d="M31,11.58c-4.58,0-6.44,7.86-6.44,10.35a3.37,3.37,0,0,0,3.71,3.62c4.72,0,6.2-9.35,6.2-10.35A3.3,3.3,0,0,0,31,11.58M22.59,33.9A6.28,6.28,0,0,0,18,40.14c0,2,1.86,5.36,7.93,5.36,6.83,0,10.91-5.12,10.91-8.86,0-2.36-1.86-2.74-3-2.74ZM30.9,10.71A7,7,0,0,1,37,14.33c.37-.88,1.73-3.62,4.34-3.62a2.3,2.3,0,0,1,2.35,2.49,1.88,1.88,0,0,1-2,2,1.78,1.78,0,0,1-2-2c0-.37.25-.49.25-.74s-.25-.25-.5-.25c-.62,0-1.73,1.62-2.23,3a6.32,6.32,0,0,1,.5,3c0,3.74-4.22,8.1-9.67,8.1a7.82,7.82,0,0,1-3.47-.74c-2,.37-4.22,1.49-4.22,3,0,1.12.63,1.74,3.72,1.74,2.48,0,5-.12,7.57-.12,3.22,0,6.69.38,6.69,5.24,0,4.24-4.34,11-13.14,11-4.84,0-9.3-2.12-9.3-5.86,0-3.49,2.6-5.49,5.33-6.73v-.13c-1.74-.62-2.6-1.49-2.6-3.37,0-3,2.85-4.61,5.32-5.11a7.1,7.1,0,0,1-3-5.61c0-5.11,5.32-8.85,9.91-8.85" transform="translate(1.1 0.45)"/><path class="cls-2" d="M40.07,35.52a4.76,4.76,0,0,0,3.48-2.24,38.64,38.64,0,0,0,2.35-7c0-.63-.87-2.37-2.35-2.37-3.73,0-5.46,6.23-5.46,9.22,0,1.38.62,2.37,2,2.37M47.14,15.7h1.24a6.29,6.29,0,0,0,3.1-.75L46,33.4a3.09,3.09,0,0,0-.25,1.13.72.72,0,0,0,.75.75c.62,0,1.49-1.13,1.86-1.5l.62-1,.37.25-.86,1.25a3.65,3.65,0,0,1-3,1.61c-1.24,0-1.73-1.36-1.61-2.49v-.12c-.62.87-1.86,2.61-4.1,2.61s-4-1.74-4-4.74c0-4.24,4.33-7.72,7.19-7.72a3,3,0,0,1,3.1,2.24h.12l2.61-9.6H47Z" transform="translate(1.1 0.45)"/><path class="cls-2" d="M12.55,25.42A5.23,5.23,0,0,0,9,27.17c-1.73,2-2.47,6.61-2.47,7.61A2.48,2.48,0,0,0,9.08,37c4.34,0,5.58-8.11,5.58-9.23,0-1.37-.5-2.37-2.11-2.37M8.84,17.57H7l.11-.37H8.34a6.43,6.43,0,0,0,3.1-.75l-3.23,11h.13a5.9,5.9,0,0,1,4.58-2.49c2.11,0,3.85,1.24,3.85,4.49,0,2.36-2.61,8-7.93,8C6.6,37.39,4.5,36,4.5,33.78A7.4,7.4,0,0,1,5,31.28Z" transform="translate(1.1 0.45)"/><path class="cls-2" d="M19.49,16.32c-.49,0-.62-.5-.62-.75,0-.74.5-1.62,1.24-1.62a.7.7,0,0,1,.75.75,1.52,1.52,0,0,1-1.37,1.62m-3.34,4h.62a6.86,6.86,0,0,0,2.72-.5l-2.23,7.1a13.14,13.14,0,0,0-.36,1.38c0,.25.12.62.49.62,1.24,0,2.23-1.49,2.47-1.87l.25.13c-.25.5-1.61,2.25-3.34,2.25a1.43,1.43,0,0,1-1.49-1.5,4.83,4.83,0,0,1,.37-1.25l1.86-6H16Z" transform="translate(1.1 0.45)"/><path class="cls-2" d="M66.34,3.16a2,2,0,0,1,.5,1.45v3A2,2,0,0,1,66.34,9a1.87,1.87,0,0,1-2.08.39,1.49,1.49,0,0,1-.59-.47l-.05,0a.05.05,0,0,0,0,0v.37c0,.09,0,.14-.13.14H63a.13.13,0,0,1-.14-.14V.22A.13.13,0,0,1,63,.08h.44c.09,0,.13.05.13.14v3a0,0,0,0,0,0,0s0,0,0,0a1.68,1.68,0,0,1,.59-.47,1.85,1.85,0,0,1,2.08.4Zm-.56.47a1.18,1.18,0,0,0-.93-.4,1.12,1.12,0,0,0-.9.4,1.49,1.49,0,0,0-.35,1V7.53a1.49,1.49,0,0,0,.35,1,1.17,1.17,0,0,0,.9.38,1.21,1.21,0,0,0,.93-.39,1.4,1.4,0,0,0,.37-1V4.65A1.41,1.41,0,0,0,65.78,3.63Z" transform="translate(1.1 0.45)"/><path class="cls-2" d="M71.13,2.79a.13.13,0,0,1,.06.17l-.1.46q0,.12-.18.06a1.35,1.35,0,0,0-.52-.06,1,1,0,0,0-.87.53,2.38,2.38,0,0,0-.33,1.29V9.32a.13.13,0,0,1-.14.14h-.44c-.09,0-.13-.05-.13-.14V2.84c0-.09,0-.13.13-.13h.44c.09,0,.14,0,.14.13v.83s0,0,0,0,0,0,0,0a1.83,1.83,0,0,1,.52-.75,1.27,1.27,0,0,1,1.36-.13Z" transform="translate(1.1 0.45)"/><path class="cls-2" d="M75.53,3.21A2.47,2.47,0,0,1,76,4.84V9.32c0,.09,0,.14-.13.14h-.45a.12.12,0,0,1-.13-.14V8.84a.06.06,0,0,0,0-.05l0,0a1.72,1.72,0,0,1-1.55.75,1.9,1.9,0,0,1-1.23-.41A1.76,1.76,0,0,1,72,7.69a2,2,0,0,1,.62-1.63,2.48,2.48,0,0,1,1.65-.53h1s0,0,0,0V4.86A2,2,0,0,0,75,3.67a1.12,1.12,0,0,0-.93-.44,1.2,1.2,0,0,0-1.19,1.06c0,.09,0,.13-.13.13l-.48,0a.18.18,0,0,1-.11,0,.16.16,0,0,1,0-.1,1.77,1.77,0,0,1,.63-1.2A2,2,0,0,1,74.1,2.6,1.77,1.77,0,0,1,75.53,3.21ZM74.9,8.55a1.4,1.4,0,0,0,.43-1.1V6.18s0-.06,0-.06h-1a1.61,1.61,0,0,0-1.11.38,1.45,1.45,0,0,0-.43,1.14,1.29,1.29,0,0,0,.33,1,1.1,1.1,0,0,0,.84.32A1.55,1.55,0,0,0,74.9,8.55Z" transform="translate(1.1 0.45)"/><path class="cls-2" d="M78.06,9a2,2,0,0,1-.55-1.45V4.61a2,2,0,0,1,.55-1.45,1.94,1.94,0,0,1,1.43-.56,2.09,2.09,0,0,1,1.05.25,1.76,1.76,0,0,1,.7.65,1.67,1.67,0,0,1,.25.9v.08a.12.12,0,0,1-.13.13l-.45,0c-.09,0-.13,0-.13-.14V4.42a1.11,1.11,0,0,0-.36-.83,1.26,1.26,0,0,0-.93-.36,1.14,1.14,0,0,0-.91.4,1.44,1.44,0,0,0-.36,1V7.53a1.44,1.44,0,0,0,.36,1,1.17,1.17,0,0,0,.91.39,1.25,1.25,0,0,0,.93-.35,1.15,1.15,0,0,0,.36-.84V7.68c0-.09,0-.14.13-.14h.45a.12.12,0,0,1,.13.14v.1a1.64,1.64,0,0,1-.25.89,1.69,1.69,0,0,1-.7.65,2.2,2.2,0,0,1-1.05.24A1.91,1.91,0,0,1,78.06,9Z" transform="translate(1.1 0.45)"/><path class="cls-2" d="M62.88,17.24a.66.66,0,0,1-.19-.49.65.65,0,0,1,.19-.48.7.7,0,0,1,1,0,.65.65,0,0,1,.19.48.66.66,0,0,1-.19.49.73.73,0,0,1-1,0ZM63,25.39V18.91c0-.09.05-.13.14-.13h.44c.09,0,.13,0,.13.13v6.48c0,.09,0,.13-.13.13h-.44C63.06,25.52,63,25.48,63,25.39Z" transform="translate(1.1 0.45)"/><path class="cls-2" d="M69.09,19.23a2.37,2.37,0,0,1,.44,1.54v4.62c0,.09,0,.13-.13.13H69c-.09,0-.14,0-.14-.13V20.84a1.75,1.75,0,0,0-.32-1.13,1.06,1.06,0,0,0-.89-.4,1.1,1.1,0,0,0-.93.43,1.88,1.88,0,0,0-.33,1.18v4.47c0,.09,0,.13-.14.13h-.44c-.09,0-.13,0-.13-.13V18.91c0-.09,0-.13.13-.13h.44c.09,0,.14,0,.14.13v.51s0,0,0,0a.05.05,0,0,0,0,0,1.55,1.55,0,0,1,1.42-.75A1.5,1.5,0,0,1,69.09,19.23Z" transform="translate(1.1 0.45)"/><path class="cls-2" d="M71.48,25.11A1.56,1.56,0,0,1,71,23.89v-.08c0-.09,0-.13.14-.13h.41c.09,0,.14,0,.14.13v.08a1,1,0,0,0,.34.8,1.26,1.26,0,0,0,.9.32,1.13,1.13,0,0,0,.86-.32,1.16,1.16,0,0,0,.33-.85,1,1,0,0,0-.19-.65,1.36,1.36,0,0,0-.46-.4,6.45,6.45,0,0,0-.77-.36A5.17,5.17,0,0,1,71.8,22a1.67,1.67,0,0,1-.57-.58A1.65,1.65,0,0,1,71,20.5a1.71,1.71,0,0,1,.51-1.3,2.13,2.13,0,0,1,2.72,0,1.71,1.71,0,0,1,.51,1.28v0a.13.13,0,0,1-.14.14h-.4c-.09,0-.13-.05-.13-.14v-.06a1.1,1.1,0,0,0-.34-.83,1.15,1.15,0,0,0-.87-.34,1.12,1.12,0,0,0-1.17,1.18,1,1,0,0,0,.17.6,1.45,1.45,0,0,0,.43.39c.18.1.42.22.73.36a7.11,7.11,0,0,1,.91.44,1.86,1.86,0,0,1,.61.58,1.89,1.89,0,0,1-.27,2.24,1.93,1.93,0,0,1-1.38.49A2,2,0,0,1,71.48,25.11Z" transform="translate(1.1 0.45)"/><path class="cls-2" d="M78.16,19.34H77.08a0,0,0,0,0,0,.05V23.7a1.43,1.43,0,0,0,.23.93.88.88,0,0,0,.72.26h.14a.12.12,0,0,1,.13.14v.36a.12.12,0,0,1-.13.13h-.27a1.62,1.62,0,0,1-1.13-.34,1.73,1.73,0,0,1-.38-1.3V19.39s0-.05-.06-.05h-.55c-.09,0-.13-.05-.13-.14v-.29c0-.09,0-.13.13-.13h.55a.05.05,0,0,0,.06-.06v-1.5c0-.09,0-.13.13-.13h.43c.09,0,.13,0,.13.13v1.5s0,.06,0,.06h1.08c.09,0,.13,0,.13.13v.29C78.29,19.29,78.25,19.34,78.16,19.34Z" transform="translate(1.1 0.45)"/><path class="cls-2" d="M79.59,17.24a.66.66,0,0,1-.19-.49.65.65,0,0,1,.19-.48.7.7,0,0,1,1,0,.65.65,0,0,1,.19.48.66.66,0,0,1-.19.49.73.73,0,0,1-1,0Zm.13,8.15V18.91c0-.09,0-.13.14-.13h.44c.09,0,.13,0,.13.13v6.48c0,.09,0,.13-.13.13h-.44C79.77,25.52,79.72,25.48,79.72,25.39Z" transform="translate(1.1 0.45)"/><path class="cls-2" d="M84.4,19.34H83.32a0,0,0,0,0,0,.05V23.7a1.43,1.43,0,0,0,.23.93.88.88,0,0,0,.72.26h.13a.13.13,0,0,1,.14.14v.36c0,.09,0,.13-.14.13h-.26A1.62,1.62,0,0,1,83,25.18a1.73,1.73,0,0,1-.39-1.3V19.39s0-.05,0-.05H82c-.09,0-.13-.05-.13-.14v-.29c0-.09,0-.13.13-.13h.55s0,0,0-.06v-1.5c0-.09.05-.13.14-.13h.43c.09,0,.13,0,.13.13v1.5s0,.06,0,.06H84.4a.12.12,0,0,1,.13.13v.29A.12.12,0,0,1,84.4,19.34Z" transform="translate(1.1 0.45)"/><path class="cls-2" d="M89.07,18.78h.44c.09,0,.13,0,.13.13v6.48c0,.09,0,.13-.13.13h-.44c-.09,0-.14,0-.14-.13v-.48s0,0,0-.05a0,0,0,0,0,0,0,1.47,1.47,0,0,1-1.37.74,1.7,1.7,0,0,1-1.27-.49,2.08,2.08,0,0,1-.47-1.47V18.91c0-.09,0-.13.13-.13h.45c.09,0,.13,0,.13.13V23.5a1.69,1.69,0,0,0,.31,1.11,1.23,1.23,0,0,0,1.82-.05,1.9,1.9,0,0,0,.33-1.18V18.91C88.93,18.82,89,18.78,89.07,18.78Z" transform="translate(1.1 0.45)"/><path class="cls-2" d="M93.49,19.34H92.41a0,0,0,0,0,0,.05V23.7a1.43,1.43,0,0,0,.23.93.88.88,0,0,0,.72.26h.14a.12.12,0,0,1,.13.14v.36a.12.12,0,0,1-.13.13h-.27a1.62,1.62,0,0,1-1.13-.34,1.73,1.73,0,0,1-.39-1.3V19.39s0-.05,0-.05h-.55c-.09,0-.13-.05-.13-.14v-.29c0-.09,0-.13.13-.13h.55s0,0,0-.06v-1.5c0-.09,0-.13.14-.13h.43c.09,0,.13,0,.13.13v1.5s0,.06,0,.06h1.08a.12.12,0,0,1,.13.13v.29A.12.12,0,0,1,93.49,19.34Z" transform="translate(1.1 0.45)"/><path class="cls-2" d="M98.61,22.4H95.53s0,0,0,.06V23.6a1.45,1.45,0,0,0,.36,1,1.17,1.17,0,0,0,.91.39,1.21,1.21,0,0,0,.81-.28A1.33,1.33,0,0,0,98,24a.14.14,0,0,1,.15-.12l.42,0a.17.17,0,0,1,.1,0s0,0,0,.08v.05a1.84,1.84,0,0,1-.64,1.16,2,2,0,0,1-1.3.42,1.89,1.89,0,0,1-1.43-.56,1.94,1.94,0,0,1-.55-1.43v-3a2,2,0,0,1,.55-1.45,1.93,1.93,0,0,1,1.43-.56,2,2,0,0,1,1.45.56,2,2,0,0,1,.55,1.45v1.59C98.75,22.36,98.7,22.4,98.61,22.4Zm-2.77-2.71a1.49,1.49,0,0,0-.36,1v1s0,.06,0,.06H98a.05.05,0,0,0,.06-.06v-1a1.49,1.49,0,0,0-.36-1,1.18,1.18,0,0,0-.93-.39A1.17,1.17,0,0,0,95.84,19.69Z" transform="translate(1.1 0.45)"/><path class="cls-2" d="M103.35,25.07a2,2,0,0,1-.55-1.45V20.68a2,2,0,0,1,.55-1.45,2,2,0,0,1,1.44-.56,2,2,0,0,1,1.46.55,2,2,0,0,1,.54,1.46v2.94a2,2,0,0,1-.54,1.45,1.94,1.94,0,0,1-1.46.56A1.88,1.88,0,0,1,103.35,25.07Zm2.37-.46a1.45,1.45,0,0,0,.36-1V20.72a1.49,1.49,0,0,0-.36-1,1.21,1.21,0,0,0-.93-.39,1.19,1.19,0,0,0-.92.39,1.49,1.49,0,0,0-.36,1V23.6a1.45,1.45,0,0,0,.36,1,1.19,1.19,0,0,0,.92.39A1.21,1.21,0,0,0,105.72,24.61Z" transform="translate(1.1 0.45)"/><path class="cls-2" d="M109.59,17a2.63,2.63,0,0,0-.21,1.2v.48s0,.06.05.06h1.1c.09,0,.13,0,.13.13v.29c0,.09,0,.14-.13.14h-1.1a0,0,0,0,0-.05.05v6c0,.09,0,.13-.14.13h-.44c-.09,0-.13,0-.13-.13v-6a0,0,0,0,0,0-.05h-.57c-.09,0-.13-.05-.13-.14v-.29c0-.09,0-.13.13-.13h.57s0,0,0-.06v-.49a2.84,2.84,0,0,1,.39-1.66,1.52,1.52,0,0,1,1.31-.53h.2c.09,0,.13.05.13.14v.35c0,.09,0,.13-.13.13h-.18A.84.84,0,0,0,109.59,17Z" transform="translate(1.1 0.45)"/><path class="cls-2" d="M66.11,32.43h.45a.13.13,0,0,1,.14.14V39.1a3.1,3.1,0,0,1-.63,2.1,2.43,2.43,0,0,1-2,.67c-.09,0-.13,0-.13-.13v-.36c0-.09.06-.14.17-.14a1.75,1.75,0,0,0,1.46-.55A2.59,2.59,0,0,0,66,39.05v-.51a.06.06,0,0,0,0,0s0,0,0,0a1.55,1.55,0,0,1-.59.55,1.66,1.66,0,0,1-.78.18,1.69,1.69,0,0,1-1.32-.56,2.09,2.09,0,0,1-.49-1.45V34.33a2.11,2.11,0,0,1,.49-1.45,1.69,1.69,0,0,1,1.32-.56,1.74,1.74,0,0,1,.79.19,1.58,1.58,0,0,1,.58.54,0,0,0,0,0,0,0s0,0,0,0v-.46A.13.13,0,0,1,66.11,32.43Zm-.49,5.8a1.44,1.44,0,0,0,.35-1V34.37a1.44,1.44,0,0,0-.35-1,1.15,1.15,0,0,0-.89-.4,1.22,1.22,0,0,0-.93.4,1.44,1.44,0,0,0-.36,1v2.84a1.44,1.44,0,0,0,.36,1,1.18,1.18,0,0,0,.93.4A1.14,1.14,0,0,0,65.62,38.23Z" transform="translate(1.1 0.45)"/><path class="cls-2" d="M68.71,38.73a2,2,0,0,1-.54-1.45v-3a1.94,1.94,0,0,1,.55-1.44,1.88,1.88,0,0,1,1.43-.57,2,2,0,0,1,1.46.56,2,2,0,0,1,.55,1.45v3a2,2,0,0,1-.55,1.45,2,2,0,0,1-1.46.56A1.92,1.92,0,0,1,68.71,38.73Zm2.38-.47a1.44,1.44,0,0,0,.36-1V34.37a1.44,1.44,0,0,0-.36-1,1.24,1.24,0,0,0-.94-.4,1.19,1.19,0,0,0-.92.4,1.49,1.49,0,0,0-.35,1v2.88a1.48,1.48,0,0,0,.35,1,1.16,1.16,0,0,0,.92.4A1.2,1.2,0,0,0,71.09,38.26Z" transform="translate(1.1 0.45)"/><path class="cls-2" d="M74.73,39.06l-1.67-6.48,0,0c0-.07,0-.11.14-.11h.5a.14.14,0,0,1,.15.12L75.1,38s0,.05,0,.05,0,0,0-.05l1.27-5.42a.14.14,0,0,1,.15-.12l.52,0a.12.12,0,0,1,.1,0,.11.11,0,0,1,0,.1l-1.65,6.47a.13.13,0,0,1-.15.12h-.53A.14.14,0,0,1,74.73,39.06Z" transform="translate(1.1 0.45)"/><path class="cls-2" d="M82.09,36.06H79a0,0,0,0,0-.05,0v1.14a1.48,1.48,0,0,0,.35,1,1.18,1.18,0,0,0,.92.4,1.28,1.28,0,0,0,.81-.28,1.37,1.37,0,0,0,.44-.74.14.14,0,0,1,.14-.12l.43,0,.1,0a.08.08,0,0,1,0,.08v.06a1.91,1.91,0,0,1-.64,1.16,2,2,0,0,1-1.3.42,1.9,1.9,0,0,1-2-2v-3a1.94,1.94,0,0,1,.55-1.44,1.9,1.9,0,0,1,1.43-.57,1.93,1.93,0,0,1,1.45.57,2,2,0,0,1,.55,1.44v1.6C82.23,36,82.18,36.06,82.09,36.06Zm-2.78-2.71a1.49,1.49,0,0,0-.35,1v1s0,0,.05,0h2.45s.06,0,.06,0v-1a1.44,1.44,0,0,0-.36-1,1.19,1.19,0,0,0-.93-.4A1.21,1.21,0,0,0,79.31,33.35Z" transform="translate(1.1 0.45)"/><path class="cls-2" d="M86.42,32.51a.15.15,0,0,1,.06.18l-.1.45c0,.08-.09.1-.18.07a1.34,1.34,0,0,0-.52-.07,1,1,0,0,0-.87.54A2.34,2.34,0,0,0,84.48,35v4.09c0,.09,0,.13-.14.13H83.9c-.09,0-.13,0-.13-.13V32.57c0-.09,0-.14.13-.14h.44a.13.13,0,0,1,.14.14v.83s0,0,0,0,0,0,0,0a1.71,1.71,0,0,1,.52-.75,1.3,1.3,0,0,1,1.36-.14Z" transform="translate(1.1 0.45)"/><path class="cls-2" d="M91,32.89a2.35,2.35,0,0,1,.44,1.54v4.62c0,.09,0,.13-.13.13h-.44c-.09,0-.13,0-.13-.13V34.49a1.72,1.72,0,0,0-.33-1.12,1.06,1.06,0,0,0-.89-.4,1.11,1.11,0,0,0-.93.43,1.85,1.85,0,0,0-.33,1.17v4.48c0,.09,0,.13-.14.13H87.7c-.09,0-.13,0-.13-.13V32.57c0-.09,0-.14.13-.14h.44a.13.13,0,0,1,.14.14v.5s0,0,0,0a0,0,0,0,0,0,0,1.55,1.55,0,0,1,1.42-.75A1.5,1.5,0,0,1,91,32.89Z" transform="translate(1.1 0.45)"/><path class="cls-2" d="M96.43,32.93a2.47,2.47,0,0,1,.51,1.63v4.49c0,.09,0,.13-.13.13h-.45a.12.12,0,0,1-.13-.13v-.49s0,0,0,0,0,0,0,0a1.72,1.72,0,0,1-1.55.75,1.91,1.91,0,0,1-1.23-.42,1.75,1.75,0,0,1-.52-1.46,2,2,0,0,1,.62-1.63,2.47,2.47,0,0,1,1.65-.52h1.05s0,0,0-.06v-.61a1.93,1.93,0,0,0-.33-1.19A1.1,1.1,0,0,0,95,33a1.15,1.15,0,0,0-.79.3,1.16,1.16,0,0,0-.4.76c0,.09,0,.14-.13.14l-.48,0a.14.14,0,0,1-.11,0A.15.15,0,0,1,93,34a1.8,1.8,0,0,1,.63-1.21A2,2,0,0,1,95,32.32,1.8,1.8,0,0,1,96.43,32.93Zm-.63,5.34a1.4,1.4,0,0,0,.43-1.1V35.9s0,0,0,0H95.13a1.56,1.56,0,0,0-1.11.38,1.41,1.41,0,0,0-.43,1.13,1.36,1.36,0,0,0,.32,1,1.18,1.18,0,0,0,.85.32A1.51,1.51,0,0,0,95.8,38.27Z" transform="translate(1.1 0.45)"/><path class="cls-2" d="M102,32.89a2.41,2.41,0,0,1,.44,1.54v4.62c0,.09,0,.13-.13.13h-.45a.12.12,0,0,1-.13-.13V34.49a1.78,1.78,0,0,0-.32-1.12,1.07,1.07,0,0,0-.9-.4,1.09,1.09,0,0,0-.92.43,1.85,1.85,0,0,0-.34,1.17v4.48c0,.09,0,.13-.13.13h-.44c-.09,0-.14,0-.14-.13V32.57a.13.13,0,0,1,.14-.14h.44c.09,0,.13,0,.13.14v.5s0,0,0,0a.06.06,0,0,0,0,0,1.72,1.72,0,0,1,2.68-.2Z" transform="translate(1.1 0.45)"/><path class="cls-2" d="M104.55,38.73a2,2,0,0,1-.54-1.45v-3a1.94,1.94,0,0,1,.55-1.44,1.9,1.9,0,0,1,1.43-.57,2.26,2.26,0,0,1,1.05.25,1.93,1.93,0,0,1,.7.66,1.73,1.73,0,0,1,.25.89v.08c0,.09,0,.13-.14.13l-.44,0c-.09,0-.13,0-.13-.13v-.08a1.14,1.14,0,0,0-.36-.84A1.27,1.27,0,0,0,106,33a1.21,1.21,0,0,0-.92.4,1.49,1.49,0,0,0-.35,1v2.88a1.48,1.48,0,0,0,.35,1,1.18,1.18,0,0,0,.92.4,1.27,1.27,0,0,0,.93-.36,1.11,1.11,0,0,0,.36-.83V37.4c0-.09,0-.13.13-.13h.44c.09,0,.14,0,.14.13v.11a1.76,1.76,0,0,1-.25.89,1.83,1.83,0,0,1-.7.65,2.26,2.26,0,0,1-1.05.24A1.92,1.92,0,0,1,104.55,38.73Z" transform="translate(1.1 0.45)"/><path class="cls-2" d="M113.13,36.06h-3.08s0,0,0,0v1.14a1.43,1.43,0,0,0,.35,1,1.16,1.16,0,0,0,.92.4,1.24,1.24,0,0,0,.8-.28,1.37,1.37,0,0,0,.44-.74.16.16,0,0,1,.15-.12l.43,0,.09,0a.07.07,0,0,1,0,.08v.06a2,2,0,0,1-.64,1.16,2,2,0,0,1-1.3.42,2,2,0,0,1-1.44-.56,2,2,0,0,1-.54-1.44v-3a2,2,0,0,1,.54-1.44,1.92,1.92,0,0,1,1.44-.57,1.89,1.89,0,0,1,1.44.57,1.94,1.94,0,0,1,.55,1.44v1.6C113.26,36,113.22,36.06,113.13,36.06Zm-2.78-2.71a1.44,1.44,0,0,0-.35,1v1s0,0,0,0h2.45s0,0,0,0v-1a1.49,1.49,0,0,0-.35-1,1.22,1.22,0,0,0-.93-.4A1.19,1.19,0,0,0,110.35,33.35Z" transform="translate(1.1 0.45)"/><path class="cls-2" d="M122,39.1s0,.08-.1.08h-.39a.15.15,0,0,1-.14-.07l-.16-.24-.38-.56s0,0-.07,0a3,3,0,0,1-.87.73,2,2,0,0,1-1,.23,1.86,1.86,0,0,1-1.33-.47,1.83,1.83,0,0,1-.49-1.35,2.45,2.45,0,0,1,.37-1.34,5.62,5.62,0,0,1,1-1.15s0,0,0-.06c-.28-.43-.48-.76-.61-1a3,3,0,0,1-.26-.58,2.2,2.2,0,0,1-.06-.53,1.68,1.68,0,0,1,.43-1.22,1.42,1.42,0,0,1,1.11-.46,1.47,1.47,0,0,1,1.12.46,1.65,1.65,0,0,1,.44,1.19,2,2,0,0,1-.36,1.2,5.76,5.76,0,0,1-1,1.08s0,0,0,.06l.74,1.1.75,1.09h.07l.56-.94a.09.09,0,0,1,.07-.06.14.14,0,0,1,.09,0l.27.16a.1.1,0,0,1,0,.16c-.23.43-.47.81-.7,1.16a.09.09,0,0,0,0,.07L122,39Zm-2.26-.58a2.65,2.65,0,0,0,.72-.68s0-.05,0-.07l-.29-.42-.29-.42-1-1.46s0,0-.06,0a5.75,5.75,0,0,0-.84,1,1.87,1.87,0,0,0-.29,1,1.32,1.32,0,0,0,.33,1,1.27,1.27,0,0,0,.94.35A1.53,1.53,0,0,0,119.74,38.52ZM118.43,32a1.2,1.2,0,0,0-.27.83,1.66,1.66,0,0,0,.14.66,8.2,8.2,0,0,0,.6,1.06s0,0,.06,0a4.49,4.49,0,0,0,.81-.87,1.53,1.53,0,0,0,.28-.91,1.19,1.19,0,0,0-.26-.79.88.88,0,0,0-.68-.3A.83.83,0,0,0,118.43,32Z" transform="translate(1.1 0.45)"/><path class="cls-2" d="M66.11,44.54h.44c.09,0,.13,0,.13.13v9.1c0,.09,0,.14-.13.14h-.44a.13.13,0,0,1-.14-.14V53.4s0,0,0,0,0,0,0,0a1.63,1.63,0,0,1-.59.46,1.79,1.79,0,0,1-.75.17,1.73,1.73,0,0,1-1.34-.56,2.08,2.08,0,0,1-.5-1.44v-3a2.09,2.09,0,0,1,.5-1.45,1.73,1.73,0,0,1,1.34-.56,1.94,1.94,0,0,1,.75.16,1.78,1.78,0,0,1,.59.47s0,0,0,0,0,0,0,0v-3C66,44.58,66,44.54,66.11,44.54ZM65.62,53A1.44,1.44,0,0,0,66,52V49.1a1.44,1.44,0,0,0-.35-1,1.12,1.12,0,0,0-.89-.4,1.19,1.19,0,0,0-.94.4,1.44,1.44,0,0,0-.36,1V52a1.44,1.44,0,0,0,.36,1,1.22,1.22,0,0,0,.94.4A1.14,1.14,0,0,0,65.62,53Z" transform="translate(1.1 0.45)"/><path class="cls-2" d="M72.16,50.79H69.08s-.06,0-.06.05V52a1.44,1.44,0,0,0,.36,1,1.25,1.25,0,0,0,1.72.11,1.31,1.31,0,0,0,.44-.73.16.16,0,0,1,.15-.12l.43,0,.09,0a.07.07,0,0,1,0,.08v.06a1.91,1.91,0,0,1-.64,1.15,2,2,0,0,1-1.3.43,2,2,0,0,1-1.44-.56A2,2,0,0,1,68.32,52v-3a2,2,0,0,1,.54-1.44,2.1,2.1,0,0,1,2.88,0,1.94,1.94,0,0,1,.55,1.44v1.59C72.29,50.74,72.25,50.79,72.16,50.79Zm-2.78-2.71a1.44,1.44,0,0,0-.36,1v1s0,.05.06.05h2.45a0,0,0,0,0,0-.05v-1a1.49,1.49,0,0,0-.35-1,1.18,1.18,0,0,0-.93-.4A1.16,1.16,0,0,0,69.38,48.08Z" transform="translate(1.1 0.45)"/><path class="cls-2" d="M74.92,53.79l-1.68-6.48v0c0-.07,0-.11.13-.11h.51a.14.14,0,0,1,.15.12l1.27,5.42s0,0,0,0,0,0,0,0l1.28-5.42a.13.13,0,0,1,.14-.12h.53a.18.18,0,0,1,.1,0,.11.11,0,0,1,0,.11l-1.64,6.47a.13.13,0,0,1-.15.12h-.54A.13.13,0,0,1,74.92,53.79Z" transform="translate(1.1 0.45)"/><path class="cls-2" d="M82.28,50.79H79.2s0,0,0,.05V52a1.48,1.48,0,0,0,.35,1,1.25,1.25,0,0,0,1.72.11,1.25,1.25,0,0,0,.44-.73.16.16,0,0,1,.15-.12l.43,0a.12.12,0,0,1,.09,0,.07.07,0,0,1,0,.08v.06a1.86,1.86,0,0,1-.64,1.15,2,2,0,0,1-1.3.43A1.91,1.91,0,0,1,79,53.46,1.94,1.94,0,0,1,78.44,52v-3A1.94,1.94,0,0,1,79,47.62a1.88,1.88,0,0,1,1.43-.57,1.93,1.93,0,0,1,1.45.57,2,2,0,0,1,.54,1.44v1.59C82.41,50.74,82.37,50.79,82.28,50.79ZM79.5,48.08a1.49,1.49,0,0,0-.35,1v1s0,.05,0,.05h2.45s0,0,0-.05v-1a1.44,1.44,0,0,0-.35-1,1.18,1.18,0,0,0-.93-.4A1.16,1.16,0,0,0,79.5,48.08Z" transform="translate(1.1 0.45)"/><path class="cls-2" d="M83.87,53.77v-9.1c0-.09,0-.13.14-.13h.44c.09,0,.13,0,.13.13v9.1c0,.09,0,.14-.13.14H84A.13.13,0,0,1,83.87,53.77Z" transform="translate(1.1 0.45)"/><path class="cls-2" d="M86.66,53.46A2,2,0,0,1,86.12,52V49.06a2,2,0,0,1,.55-1.44,1.9,1.9,0,0,1,1.43-.57,1.91,1.91,0,0,1,2,2V52a2,2,0,0,1-3.45,1.45ZM89,53a1.44,1.44,0,0,0,.36-1V49.1a1.44,1.44,0,0,0-.36-1,1.19,1.19,0,0,0-.94-.4,1.14,1.14,0,0,0-.91.4,1.44,1.44,0,0,0-.36,1V52a1.44,1.44,0,0,0,.36,1,1.17,1.17,0,0,0,.91.4A1.22,1.22,0,0,0,89,53Z" transform="translate(1.1 0.45)"/><path class="cls-2" d="M95.26,47.61a2,2,0,0,1,.5,1.45V52a2.06,2.06,0,0,1-.5,1.45,1.82,1.82,0,0,1-2.08.39,1.55,1.55,0,0,1-.59-.46s0,0,0,0,0,0,0,0v3c0,.09,0,.13-.13.13H92c-.09,0-.14,0-.14-.13V47.29a.12.12,0,0,1,.14-.13h.44a.12.12,0,0,1,.13.13v.38a0,0,0,0,0,0,0s0,0,0,0a1.68,1.68,0,0,1,.59-.47,1.87,1.87,0,0,1,.75-.16A1.71,1.71,0,0,1,95.26,47.61Zm-.56.47a1.18,1.18,0,0,0-.93-.4,1.14,1.14,0,0,0-.9.39,1.49,1.49,0,0,0-.35,1V52a1.49,1.49,0,0,0,.35,1,1.14,1.14,0,0,0,.9.39,1.22,1.22,0,0,0,.93-.4,1.4,1.4,0,0,0,.37-1V49.09A1.4,1.4,0,0,0,94.7,48.08Z" transform="translate(1.1 0.45)"/><path class="cls-2" d="M103.82,47.66a2.56,2.56,0,0,1,.44,1.6v4.51c0,.09,0,.14-.13.14h-.44a.13.13,0,0,1-.14-.14V49.33a2,2,0,0,0-.31-1.19,1,1,0,0,0-.84-.44,1.08,1.08,0,0,0-.89.42,1.9,1.9,0,0,0-.33,1.18v4.47c0,.09,0,.14-.13.14h-.44c-.09,0-.13,0-.13-.14V49.33a1.93,1.93,0,0,0-.33-1.19,1,1,0,0,0-.83-.44,1.08,1.08,0,0,0-.89.42,1.84,1.84,0,0,0-.34,1.18v4.47c0,.09,0,.14-.13.14h-.43c-.09,0-.13,0-.13-.14V47.29a.12.12,0,0,1,.13-.13H98a.12.12,0,0,1,.13.13v.5a0,0,0,0,0,0,.05s0,0,0,0a1.61,1.61,0,0,1,.61-.55,1.71,1.71,0,0,1,.77-.18,1.52,1.52,0,0,1,.88.26,1.77,1.77,0,0,1,.58.77s0,0,.06,0a1.71,1.71,0,0,1,.65-.75,1.68,1.68,0,0,1,.91-.25A1.39,1.39,0,0,1,103.82,47.66Z" transform="translate(1.1 0.45)"/><path class="cls-2" d="M109.66,50.79h-3.08s0,0,0,.05V52a1.48,1.48,0,0,0,.35,1,1.25,1.25,0,0,0,1.72.11,1.25,1.25,0,0,0,.44-.73.16.16,0,0,1,.15-.12l.43,0a.12.12,0,0,1,.09,0,.07.07,0,0,1,0,.08v.06a1.86,1.86,0,0,1-.64,1.15,2,2,0,0,1-1.3.43,1.91,1.91,0,0,1-1.43-.56,1.94,1.94,0,0,1-.55-1.44v-3a1.94,1.94,0,0,1,.55-1.44,1.88,1.88,0,0,1,1.43-.57,1.93,1.93,0,0,1,1.45.57,2,2,0,0,1,.54,1.44v1.59C109.79,50.74,109.75,50.79,109.66,50.79Zm-2.78-2.71a1.49,1.49,0,0,0-.35,1v1s0,.05,0,.05H109s0,0,0-.05v-1a1.44,1.44,0,0,0-.35-1,1.18,1.18,0,0,0-.93-.4A1.16,1.16,0,0,0,106.88,48.08Z" transform="translate(1.1 0.45)"/><path class="cls-2" d="M114.79,47.62a2.39,2.39,0,0,1,.44,1.54v4.61c0,.09,0,.14-.13.14h-.45c-.09,0-.13,0-.13-.14V49.22a1.78,1.78,0,0,0-.32-1.12,1.08,1.08,0,0,0-.9-.4,1.11,1.11,0,0,0-.92.42A1.84,1.84,0,0,0,112,49.3v4.47c0,.09,0,.14-.13.14h-.44a.13.13,0,0,1-.14-.14V47.29a.12.12,0,0,1,.14-.13h.44a.12.12,0,0,1,.13.13v.51s0,0,0,0l0,0a1.72,1.72,0,0,1,2.68-.2Z" transform="translate(1.1 0.45)"/><path class="cls-2" d="M119,47.72h-1.07a.05.05,0,0,0-.06.06v4.31a1.47,1.47,0,0,0,.23.93.92.92,0,0,0,.72.26h.14c.09,0,.13,0,.13.13v.36c0,.09,0,.14-.13.14h-.27a1.63,1.63,0,0,1-1.13-.35,1.74,1.74,0,0,1-.38-1.3V47.78a.05.05,0,0,0-.06-.06h-.54c-.09,0-.14,0-.14-.13v-.3a.12.12,0,0,1,.14-.13h.54s.06,0,.06,0v-1.5c0-.09,0-.14.13-.14h.43c.09,0,.13.05.13.14v1.5s0,0,.06,0H119a.12.12,0,0,1,.13.13v.3C119.11,47.68,119.07,47.72,119,47.72Z" transform="translate(1.1 0.45)"/></svg>