<?xml version="1.0" encoding="UTF-8"?> <svg xmlns="http://www.w3.org/2000/svg" width="331" height="41" viewBox="0 0 331 41" fill="none"><path d="M271.495 0.744141L275.109 10.0001H273.744L272.717 7.16614H268.83L267.777 10.0001H266.477L270.117 0.744141H271.495ZM272.353 6.19114L270.78 1.91414L269.181 6.19114H272.353Z" fill="#1A1A1A"></path><path d="M277.013 0.744141V10.0001H275.895V0.744141H277.013Z" fill="#1A1A1A"></path><path d="M284.458 7.88114C284.12 9.42814 283.119 10.2211 281.533 10.2211C279.557 10.2211 278.374 8.92114 278.374 6.73714C278.374 4.56614 279.635 3.09714 281.494 3.09714C283.704 3.09714 284.536 4.85214 284.536 6.78914V6.94514H279.492L279.479 7.02314C279.479 8.45314 280.272 9.31114 281.572 9.31114C282.534 9.31114 283.067 8.89514 283.379 7.88114H284.458ZM283.392 6.04814C283.288 4.77414 282.573 4.00714 281.468 4.00714C280.389 4.00714 279.635 4.78714 279.492 6.04814H283.392Z" fill="#1A1A1A"></path><path d="M291.219 3.29214L288.879 6.38614L291.492 10.0001H290.075L288.19 7.24414L286.331 10.0001H284.992L287.514 6.46414L285.187 3.29214H286.591L288.216 5.59314L289.88 3.29214H291.219Z" fill="#1A1A1A"></path><path d="M298.169 7.88114C297.831 9.42814 296.83 10.2211 295.244 10.2211C293.268 10.2211 292.085 8.92114 292.085 6.73714C292.085 4.56614 293.346 3.09714 295.205 3.09714C297.415 3.09714 298.247 4.85214 298.247 6.78914V6.94514H293.203L293.19 7.02314C293.19 8.45314 293.983 9.31114 295.283 9.31114C296.245 9.31114 296.778 8.89514 297.09 7.88114H298.169ZM297.103 6.04814C296.999 4.77414 296.284 4.00714 295.179 4.00714C294.1 4.00714 293.346 4.78714 293.203 6.04814H297.103Z" fill="#1A1A1A"></path><path d="M304.969 3.29214L302.096 10.8581C301.732 11.8071 301.355 12.7041 300.159 12.7041C299.873 12.7041 299.613 12.6521 299.34 12.5871V11.5991C299.691 11.7031 299.86 11.7421 300.055 11.7421C300.419 11.7421 300.705 11.4951 300.835 11.1831L301.355 9.96114L298.69 3.29214H299.938L301.927 8.63514L303.812 3.29214H304.969Z" fill="#1A1A1A"></path><path d="M274.16 18.4611H272.977C272.834 17.1221 272.041 16.5761 270.676 16.5761C269.35 16.5761 268.583 17.1351 268.583 18.1101C268.583 19.1501 269.662 19.3711 271.092 19.6701C272.6 19.9821 274.524 20.4501 274.524 22.4001C274.524 24.4541 272.691 25.2081 270.923 25.2081C268.713 25.2081 267.088 24.1811 267.088 21.9451H268.271C268.323 23.6221 269.545 24.2071 271.027 24.2071C272.106 24.2071 273.328 23.8301 273.328 22.5171C273.328 21.3211 272.158 21.0871 270.637 20.7361C269.142 20.3981 267.413 20.1511 267.413 18.2011C267.413 16.3031 269.103 15.5621 270.767 15.5621C272.73 15.5621 274.082 16.4721 274.16 18.4611Z" fill="#1A1A1A"></path><path d="M281.784 24.1161V24.9741C281.55 25.0651 281.277 25.1041 281.03 25.1041C280.406 25.1041 280.068 24.7531 280.055 24.1161C279.392 24.8571 278.664 25.1821 277.624 25.1821C276.298 25.1821 275.479 24.4541 275.479 23.2841C275.479 22.0881 276.272 21.3861 277.858 21.1911C279.457 20.9961 280.003 21.0351 280.003 20.1251C280.003 19.4101 279.47 19.0201 278.482 19.0201C277.455 19.0201 276.922 19.3971 276.818 20.3851H275.739C275.778 18.9551 276.818 18.1101 278.547 18.1101C279.444 18.1101 280.211 18.3441 280.653 18.7601C281.121 19.2151 281.108 19.9041 281.108 20.5021C281.108 21.5031 281.056 22.4911 281.056 23.4921C281.056 23.9861 281.173 24.1551 281.511 24.1551C281.615 24.1551 281.667 24.1421 281.784 24.1161ZM280.003 21.5161C279.587 21.8281 279.015 21.8541 278.521 21.9191C277.715 22.0231 276.623 22.1141 276.623 23.1931C276.623 23.8821 277.13 24.3111 277.962 24.3111C279.002 24.3111 280.003 23.5961 280.003 22.7381V21.5161Z" fill="#1A1A1A"></path><path d="M282.175 18.2921H283.41L285.308 23.9211L287.154 18.2921H288.311L285.854 25.0001H284.671L282.175 18.2921Z" fill="#1A1A1A"></path><path d="M295.097 22.5561C294.902 24.1551 293.836 25.1951 292.172 25.1951C290.092 25.1951 288.987 23.7781 288.987 21.7371C288.987 19.5011 290.235 18.0971 292.211 18.0971C293.849 18.0971 294.876 18.9551 295.058 20.4761H293.914C293.719 19.5271 293.134 19.0201 292.224 19.0201C290.95 19.0201 290.144 20.0341 290.144 21.6461C290.144 23.2841 290.898 24.2721 292.146 24.2721C293.147 24.2721 293.81 23.6611 293.979 22.5561H295.097Z" fill="#1A1A1A"></path><path d="M297.413 15.7441V19.2411C297.907 18.5001 298.648 18.1231 299.61 18.1231C301.209 18.1231 301.872 19.0071 301.872 20.4111V25.0001H300.767V20.6711C300.767 19.7481 300.494 19.0851 299.298 19.0851C297.881 19.0851 297.413 20.0731 297.413 21.5941V25.0001H296.308V15.7441H297.413Z" fill="#1A1A1A"></path><path d="M309.264 22.8811C308.926 24.4281 307.925 25.2211 306.339 25.2211C304.363 25.2211 303.18 23.9211 303.18 21.7371C303.18 19.5661 304.441 18.0971 306.3 18.0971C308.51 18.0971 309.342 19.8521 309.342 21.7891V21.9451H304.298L304.285 22.0231C304.285 23.4531 305.078 24.3111 306.378 24.3111C307.34 24.3111 307.873 23.8951 308.185 22.8811H309.264ZM308.198 21.0481C308.094 19.7741 307.379 19.0071 306.274 19.0071C305.195 19.0071 304.441 19.7871 304.298 21.0481H308.198Z" fill="#1A1A1A"></path><path d="M311.554 18.2921V19.3321C312.113 18.5131 312.815 18.1101 313.842 18.1101C315.48 18.1101 316.078 19.0071 316.078 20.5411V25.0001H314.973V21.0481C314.973 19.9821 314.921 19.0721 313.53 19.0721C312.087 19.0721 311.619 20.1641 311.619 21.4901V25.0001H310.514V18.2921H311.554Z" fill="#1A1A1A"></path><path d="M323.379 18.2921L320.714 20.7231L323.574 25.0001H322.17L319.869 21.4901L318.816 22.4651V25.0001H317.737V15.7441H318.816V21.2171L321.897 18.2921H323.379Z" fill="#1A1A1A"></path><path d="M327.416 18.0971C329.444 18.0971 330.627 19.3841 330.627 21.6071C330.627 23.8821 329.444 25.2081 327.403 25.2081C325.349 25.2081 324.127 23.8821 324.127 21.6721C324.127 19.4621 325.388 18.0971 327.416 18.0971ZM327.39 19.0201C326.09 19.0201 325.271 20.0471 325.271 21.6461C325.271 23.2971 326.064 24.2721 327.416 24.2721C328.716 24.2721 329.496 23.2841 329.496 21.6331C329.496 20.0341 328.69 19.0201 327.39 19.0201Z" fill="#1A1A1A"></path><path d="M274.16 33.4611H272.977C272.834 32.1221 272.041 31.5761 270.676 31.5761C269.35 31.5761 268.583 32.1351 268.583 33.1101C268.583 34.1501 269.662 34.3711 271.092 34.6701C272.6 34.9821 274.524 35.4501 274.524 37.4001C274.524 39.4541 272.691 40.2081 270.923 40.2081C268.713 40.2081 267.088 39.1811 267.088 36.9451H268.271C268.323 38.6221 269.545 39.2071 271.027 39.2071C272.106 39.2071 273.328 38.8301 273.328 37.5171C273.328 36.3211 272.158 36.0871 270.637 35.7361C269.142 35.3981 267.413 35.1511 267.413 33.2011C267.413 31.3031 269.103 30.5621 270.767 30.5621C272.73 30.5621 274.082 31.4721 274.16 33.4611Z" fill="#1A1A1A"></path><path d="M278.716 33.2921V34.2021H277.377V38.1151C277.377 38.7261 277.338 39.1031 278.118 39.1031C278.339 39.1031 278.482 39.0901 278.716 39.0641V40.0131C278.365 40.0521 278.222 40.0651 277.871 40.0651C276.194 40.0651 276.272 39.2331 276.272 37.7641V34.2021H275.141V33.2921H276.272V31.3031H277.377V33.2921H278.716Z" fill="#1A1A1A"></path><path d="M285.507 33.2921V40.0001H284.48V38.9471C283.895 39.7921 283.154 40.1821 282.166 40.1821C280.762 40.1821 279.93 39.3891 279.93 37.9071V33.2921H281.035V37.6081C281.035 38.5701 281.308 39.2201 282.439 39.2201C283.895 39.2201 284.402 38.1801 284.402 36.8021V33.2921H285.507Z" fill="#1A1A1A"></path><path d="M293.212 30.7441V40.0001H292.172V39.0121C291.756 39.7791 290.989 40.1821 289.962 40.1821C288.064 40.1821 286.855 38.8171 286.855 36.6331C286.855 34.7351 287.843 33.0971 289.91 33.0971C290.885 33.0971 291.613 33.4741 292.107 34.1891V30.7441H293.212ZM290.053 34.0461C288.792 34.0461 287.999 35.0341 287.999 36.6071C287.999 38.2321 288.805 39.2721 290.079 39.2721C291.366 39.2721 292.133 38.2841 292.133 36.6461C292.133 35.3071 291.561 34.0461 290.053 34.0461Z" fill="#1A1A1A"></path><path d="M296.043 30.7441V32.0961H294.925V30.7441H296.043ZM296.043 33.2921V40.0001H294.925V33.2921H296.043Z" fill="#1A1A1A"></path><path d="M300.693 33.0971C302.721 33.0971 303.904 34.3841 303.904 36.6071C303.904 38.8821 302.721 40.2081 300.68 40.2081C298.626 40.2081 297.404 38.8821 297.404 36.6721C297.404 34.4621 298.665 33.0971 300.693 33.0971ZM300.667 34.0201C299.367 34.0201 298.548 35.0471 298.548 36.6461C298.548 38.2971 299.341 39.2721 300.693 39.2721C301.993 39.2721 302.773 38.2841 302.773 36.6331C302.773 35.0341 301.967 34.0201 300.667 34.0201Z" fill="#1A1A1A"></path><path d="M115.757 2.26014V16.5001H113.257V10.1001H106.737V16.5001H104.237V2.26014H106.737V7.92014H113.257V2.26014H115.757Z" fill="#1A1A1A"></path><path d="M125.211 2.24014L130.711 16.5001H128.031L126.671 12.7201H121.031L119.631 16.5001H117.051L122.551 2.24014H125.211ZM126.011 10.8401L123.891 4.84014L121.671 10.8401H126.011Z" fill="#1A1A1A"></path><path d="M130.203 2.26014H132.743L135.343 13.1001L138.263 2.26014H140.803L143.623 13.1001L146.303 2.26014H148.843L144.903 16.5001H142.363L139.483 5.56014L136.543 16.5001H133.963L130.203 2.26014Z" fill="#1A1A1A"></path><path d="M162.35 2.26014L156.65 7.94014L162.71 16.5001H159.61L154.93 9.68014L152.89 11.7201V16.5001H150.41V2.26014H152.89V8.72014L159.19 2.26014H162.35Z" fill="#1A1A1A"></path><path d="M179.928 6.46014H177.548C177.388 4.68014 176.207 3.96014 174.447 3.96014C172.747 3.96014 171.727 4.70014 171.727 5.94014C171.727 7.30014 172.608 7.38014 175.348 8.10014C177.768 8.72014 180.488 9.30014 180.488 12.3601C180.488 15.5801 177.627 16.8201 174.827 16.8201C171.447 16.8201 168.827 15.2201 168.827 11.7801H171.288C171.288 13.9801 172.947 14.8401 174.967 14.8401C176.887 14.8401 178.027 14.0001 178.027 12.6001C178.027 11.1201 176.808 10.8601 174.708 10.3201C171.688 9.54014 169.348 9.04014 169.348 6.14014C169.348 3.60014 171.407 1.98014 174.607 1.98014C177.507 1.98014 179.808 3.28014 179.928 6.46014Z" fill="#1A1A1A"></path><path d="M192.876 2.26014V4.42014H188.336V16.5001H185.836V4.42014H181.296V2.26014H192.876Z" fill="#1A1A1A"></path><path d="M206.112 2.26014L200.752 10.8401V16.5001H198.292V10.8401L192.912 2.26014H195.792L199.572 8.56014L203.312 2.26014H206.112Z" fill="#1A1A1A"></path><path d="M217.22 14.3401V16.5001H207.46V2.26014H209.98V14.3401H217.22Z" fill="#1A1A1A"></path><path d="M229.205 2.26014V4.36014H221.425V8.14014H228.645V10.1601H221.425V14.3601H229.325V16.5001H218.945V2.26014H229.205Z" fill="#1A1A1A"></path><path d="M104.277 22.2601H109.697C111.457 22.2601 112.997 22.5001 114.357 23.7201C115.717 24.9401 116.457 26.8601 116.457 29.1401C116.457 31.2601 115.997 33.3801 114.457 34.9201C113.277 36.1001 112.077 36.5001 109.837 36.5001H104.277V22.2601ZM106.757 24.3801V34.4001H109.697C113.037 34.4001 113.957 32.1801 113.957 29.2601C113.957 26.3401 112.657 24.3801 109.537 24.3801H106.757Z" fill="#1A1A1A"></path><path d="M128.951 22.2601V24.3601H121.171V28.1401H128.391V30.1601H121.171V34.3601H129.071V36.5001H118.691V22.2601H128.951Z" fill="#1A1A1A"></path><path d="M141.549 26.4601H139.169C139.009 24.6801 137.829 23.9601 136.069 23.9601C134.369 23.9601 133.349 24.7001 133.349 25.9401C133.349 27.3001 134.229 27.3801 136.969 28.1001C139.389 28.7201 142.109 29.3001 142.109 32.3601C142.109 35.5801 139.249 36.8201 136.449 36.8201C133.069 36.8201 130.449 35.2201 130.449 31.7801H132.909C132.909 33.9801 134.569 34.8401 136.589 34.8401C138.509 34.8401 139.649 34.0001 139.649 32.6001C139.649 31.1201 138.429 30.8601 136.329 30.3201C133.309 29.5401 130.969 29.0401 130.969 26.1401C130.969 23.6001 133.029 21.9801 136.229 21.9801C139.129 21.9801 141.429 23.2801 141.549 26.4601Z" fill="#1A1A1A"></path><path d="M146.817 22.2601V36.5001H144.297V22.2601H146.817Z" fill="#1A1A1A"></path><path d="M162.344 28.8801V36.5001H160.744L160.364 34.8001C159.204 36.2001 157.824 36.8401 155.924 36.8401C151.924 36.8401 149.184 33.8601 149.184 29.4801C149.184 25.3401 151.744 21.9601 156.144 21.9601C159.104 21.9601 161.844 23.7001 162.164 26.8001H159.744C159.444 25.1001 158.064 24.0601 156.124 24.0601C153.384 24.0601 151.704 26.1201 151.704 29.4401C151.704 32.8001 153.384 34.8201 156.204 34.8201C158.804 34.8201 160.084 32.9401 160.084 30.8001H156.244V28.8801H162.344Z" fill="#1A1A1A"></path><path d="M176.56 22.2601V36.5001H173.98L167.34 26.0201V36.5001H164.98V22.2601H167.6L174.16 32.7601V22.2601H176.56Z" fill="#1A1A1A"></path><path d="M181.933 21.9201C183.993 21.9201 185.673 23.5801 185.673 25.6401C185.693 27.7001 183.993 29.3801 181.933 29.3801C179.873 29.3801 178.213 27.7001 178.213 25.6401C178.213 23.6001 179.873 21.9201 181.933 21.9201ZM181.933 22.5601C180.233 22.5601 178.853 23.9401 178.853 25.6401C178.853 27.3401 180.233 28.7401 181.933 28.7401C183.633 28.7401 185.013 27.3401 185.013 25.6401C185.013 23.9401 183.633 22.5601 181.933 22.5601ZM180.393 23.5801H181.853C182.693 23.5801 183.673 23.7201 183.673 24.7801C183.673 25.3001 183.453 25.5801 182.933 25.7601C183.453 25.9601 183.593 26.2601 183.613 27.1201C183.613 27.4201 183.633 27.4801 183.713 27.6801H182.793C182.733 27.5001 182.713 27.4401 182.713 27.1201C182.693 26.3001 182.533 26.1401 181.753 26.1401H181.313V27.6801H180.393V23.5801ZM181.313 25.4201H181.813C182.473 25.4201 182.733 25.2601 182.733 24.8601C182.733 24.4801 182.473 24.3201 181.813 24.3201H181.313V25.4201Z" fill="#1A1A1A"></path><path d="M77.749 3.80484C79.809 3.80484 81.489 5.46484 81.489 7.52484C81.509 9.58485 79.809 11.2648 77.749 11.2648C75.689 11.2648 74.029 9.58485 74.029 7.52484C74.029 5.48484 75.689 3.80484 77.749 3.80484ZM77.749 4.44484C76.049 4.44484 74.669 5.82485 74.669 7.52484C74.669 9.22484 76.049 10.6248 77.749 10.6248C79.449 10.6248 80.829 9.22484 80.829 7.52484C80.829 5.82485 79.449 4.44484 77.749 4.44484ZM76.209 5.46484H77.669C78.509 5.46484 79.489 5.60484 79.489 6.66484C79.489 7.18485 79.269 7.46485 78.749 7.64485C79.269 7.84485 79.409 8.14484 79.429 9.00484C79.429 9.30484 79.449 9.36484 79.529 9.56485H78.609C78.549 9.38485 78.529 9.32484 78.529 9.00484C78.509 8.18484 78.349 8.02485 77.569 8.02485H77.129V9.56485H76.209V5.46484ZM77.129 7.30484H77.629C78.289 7.30484 78.549 7.14484 78.549 6.74484C78.549 6.36485 78.289 6.20484 77.629 6.20484H77.129V7.30484Z" fill="#1A1A1A"></path><path d="M9.84918 36.9927C8.09796 36.6627 6.39576 36.1112 4.78356 35.3516C3.36078 34.7041 2.13363 33.6934 1.22562 32.421C0.303982 30.9901 -0.117142 29.2941 0.0280628 27.5984L0.0286055 27.5918L0.0292584 27.5818C0.180471 25.1906 1.12756 22.9187 2.71979 21.128C4.23835 19.3749 5.97822 17.8265 7.89573 16.5217C8.31952 16.2143 8.74857 15.9149 9.17695 15.6158C9.50771 15.385 9.83866 15.154 10.1659 14.9202C10.2746 14.8484 10.3583 14.7446 10.4053 14.623C10.9218 12.8131 11.849 11.1467 13.1147 9.75352C14.3804 8.36039 15.9505 7.27809 17.7028 6.59085C19.759 5.71517 21.9165 5.09954 24.1252 4.75822C26.6547 4.34123 29.2077 4.08207 31.7694 3.98224H32.3143C32.3061 3.99352 32.2978 4.00453 32.2892 4.01529H32.3225C32.2122 4.16852 32.0609 4.27169 31.9143 4.37169C31.6738 4.53564 31.446 4.69105 31.4317 5.04457C31.6317 4.987 31.828 4.92869 32.0221 4.87103C32.4656 4.7393 32.8978 4.6109 33.3379 4.50231C35.7461 3.92884 38.2388 3.80015 40.6932 4.12258C44.582 4.6989 48.358 5.87405 51.8871 7.60622C52.4692 7.86891 53.0392 8.14381 53.6127 8.42042L53.8931 8.55556L54.0829 8.65462L49.8398 8.84448V8.94354C57.5253 10.966 63.4359 15.5889 68.5046 21.6316L68.4506 21.6316L68.5128 21.7059C68.3663 21.6957 68.2396 21.6827 68.125 21.6709C67.9617 21.6541 67.8231 21.6399 67.6873 21.6399C67.3826 21.5939 67.079 21.5469 66.7757 21.5L66.7735 21.4996C66.2063 21.4119 65.64 21.3242 65.0704 21.2437C64.9271 21.2356 64.7837 21.2527 64.6466 21.294C69.0493 24.082 72.8346 27.7423 75.769 32.0495L74.5555 31.5542C73.9485 31.2954 73.3429 31.0338 72.7374 30.7723L72.7364 30.7719C71.2756 30.1408 69.8158 29.5102 68.3395 28.9208C66.1435 28.03 63.835 27.4466 61.4795 27.1873H61.3368C61.3925 27.2738 61.454 27.3566 61.5207 27.435C62.3132 28.1532 63.0974 28.8631 63.923 29.5648C64.8341 30.2782 65.6449 31.1112 66.3334 32.0413C66.5545 32.3858 66.7478 32.7474 66.9113 33.1227L66.8732 33.1067L66.8948 33.1557C63.4261 31.6777 59.8016 30.6018 56.0923 29.9476C55.4988 29.8449 54.9032 29.7531 54.3058 29.6721C54.2467 29.6531 54.1832 29.6531 54.1242 29.6721C54.9925 30.4594 55.9591 31.121 56.9955 31.6428C58.1354 32.2148 59.3593 32.6179 60.6292 32.8338L60.6238 32.8383L60.6457 32.842C60.2556 33.1741 59.7957 33.4139 59.3001 33.5437C58.0095 33.9051 56.6668 34.0447 55.3294 33.9565C55.2465 33.953 55.1638 33.9488 55.0811 33.9439C54.7949 33.9336 54.5084 33.9061 54.2133 33.8764L54.1548 33.8712C53.9413 33.8525 53.723 33.8333 53.4968 33.8161C54.8077 35.4914 56.4723 36.8564 58.3716 37.8137L58.4003 37.8281L56.9062 38.1913C54.4177 38.763 51.8945 39.1712 49.3528 39.4131C46.6656 39.6828 43.9582 39.6828 41.271 39.4131C38.1504 39.0555 35.0796 38.3494 32.1161 37.308C28.5217 36.0806 25.0571 34.5017 21.7725 32.5944C19.8253 31.4344 17.6001 30.8239 15.3336 30.8278C13.7055 30.7787 12.0803 30.9933 10.5208 31.4634C9.97413 31.6415 9.45465 31.8943 8.97715 32.2146C8.75282 32.3539 8.55886 32.5369 8.40685 32.7528C8.25484 32.9686 8.14791 33.2129 8.09243 33.4711C8.03695 33.7292 8.03407 33.9959 8.08395 34.2551C8.13384 34.5144 8.23547 34.761 8.38278 34.9801C8.73526 35.4966 9.12717 35.9851 9.555 36.4412C9.63385 36.5349 9.71565 36.6226 9.79688 36.7098C9.85162 36.7685 9.90635 36.8272 9.9595 36.887L9.94598 36.914L9.95947 36.9283L9.90171 37.0026L9.84918 36.9927Z" fill="#1A1A1A"></path></svg> 